<svg xmlns="http://www.w3.org/2000/svg" width="143.98" height="141.29" viewBox="0 0 143.98 141.29">
  <defs>
    <style>
      .cls-1 {
        fill: #ff804f;
      }
    </style>
  </defs>
  <g id="Layer_2" data-name="Layer 2">
    <g id="Layer_1-2" data-name="Layer 1">
      <g>
        <polygon class="cls-1" points="77.11 125.24 75.92 126.09 74.58 126.71 73.18 127.19 71.71 127.37 70.24 127.25 68.83 126.83 67.68 125.92 66.65 124.96 65.33 124.75 64.42 125.79 63.73 126.99 64.55 127.93 65.37 128.89 66.35 129.69 67.5 130.36 68.75 130.82 70.06 131.1 71.38 131.24 72.72 131.25 74.03 131.01 75.33 130.75 76.61 130.38 77.68 129.69 78.33 128.63 78.43 127.38 78 126.19 77.11 125.24"/>
        <polygon class="cls-1" points="88.58 112.57 87.03 112.91 86.29 114.42 85.71 115.9 84.69 117.07 83.16 117.46 81.89 117.55 80.61 117.45 79.46 116.91 78.55 116.08 77.66 115.12 76.88 114.07 76.36 112.86 75.51 111.85 74.81 110.67 76.39 110.09 77.87 109.45 79.3 108.7 80.61 108 81.69 106.98 82.42 105.7 82.74 104.24 82.54 102.94 82.07 101.74 81.38 100.67 80.46 99.76 79.22 99.35 78.06 98.79 76.81 98.47 75.56 98.16 74.31 97.85 73.04 97.65 71.61 97.55 70.19 97.68 68.75 97.76 67.39 98.19 66.05 98.67 64.73 99.2 63.41 99.78 62.28 100.66 61.36 101.54 60.8 102.7 60.84 103.98 61.21 105.31 61.8 106.57 62.78 107.58 63.94 108.34 65.26 108.73 66.77 109.28 68.22 109.99 67.82 111.3 67.36 112.57 66.64 113.72 65.85 114.81 65.03 115.91 63.81 116.47 62.52 116.97 61.15 117.17 59.78 117.17 58.42 117.08 57.61 116.26 57.12 115.15 56.44 114.14 55.61 113.03 54.7 112.08 53.51 113.04 52.32 114.08 52.09 115.46 52.34 116.83 52.77 118.14 53.43 119.36 54.45 120.31 55.52 121.18 56.74 121.83 58.04 122.32 59.42 122.47 60.79 122.36 62.16 122.24 63.52 121.99 64.78 121.42 65.99 120.8 67.21 120.17 68.35 119.39 69.49 118.28 70.53 117.07 71.74 116.04 71.94 116.19 72.91 117.42 73.72 118.48 74.61 119.47 75.72 120.22 76.75 121.08 77.96 121.65 79.24 122.06 80.56 122.28 81.9 122.32 83.28 122.26 84.66 122.06 86.01 121.69 87.23 121.02 88.28 120.11 89.25 119.11 89.82 117.84 90.26 116.53 90.23 115.14 90.22 113.98 89.67 112.95 88.58 112.57"/>
        <polygon class="cls-1" points="53.02 51.24 52.31 50 51.57 48.8 51.09 47.46 50.58 46.15 49.97 44.96 49.66 43.64 49.04 42.45 48.53 41.22 47.91 40.04 47.3 38.85 46.72 37.64 46.31 36.36 45.58 35.22 45.13 33.97 44.68 32.7 44.46 31.38 43.98 29.94 43.32 28.59 42.73 27.21 42.12 25.83 41.67 24.55 41.29 23.25 40.65 22.05 40.05 20.84 39.43 19.63 38.65 18.51 37.59 17.64 36.41 16.58 35.82 17.31 35.34 18.72 35.02 20.18 34.7 21.63 34.21 23.04 33.94 24.5 33.58 25.78 33.4 27.09 33.19 28.41 32.97 29.71 32.51 30.97 32.41 32.3 32.28 33.62 32.12 34.93 32.01 36.31 31.8 37.68 31.88 39.07 31.8 40.45 31.7 41.83 31.52 43.21 31.51 44.59 31.53 45.98 31.53 47.36 31.57 48.79 31.7 50.21 31.82 51.64 31.67 53.07 31.72 54.49 31.78 55.92 31.95 57.34 32.14 58.76 32.32 60.18 32.17 61.62 32.73 62.82 33.4 63.93 34.44 64.71 35.9 64.53 37.28 63.83 38.48 62.91 39.37 61.83 40.28 60.75 41.37 59.85 42.39 58.88 43.57 58.11 44.71 57.3 45.85 56.48 47.03 55.71 48.24 55 49.55 54.49 50.88 54.02 52.1 53.36 52.46 52.28 53.02 51.24"/>
        <polygon class="cls-1" points="93.51 54.59 94.81 54.82 96.09 54.99 97.25 55.8 98.35 56.7 99.4 57.66 100.48 58.58 101.62 59.42 102.71 60.34 103.8 61.26 105.14 61.78 106.33 62.56 107.63 63.16 109 63.43 109.95 62.75 110.91 62.09 110.86 60.8 111.05 59.47 111.06 58.13 110.97 56.8 110.94 55.47 110.97 54.14 110.86 52.81 110.99 51.38 110.84 49.96 110.61 48.54 110.66 47.1 110.58 45.68 110.21 44.38 110.25 43.04 110.1 41.72 109.88 40.41 109.59 39.11 109.53 37.78 109.5 36.45 109.09 35.16 109.09 33.82 108.78 32.53 108.54 31.22 108.54 29.87 108.05 28.61 108.01 27.26 107.68 25.97 107.19 24.72 106.91 23.42 106.6 22.12 106.31 20.74 105.97 19.36 105.17 18.19 103.86 17.65 102.67 18.56 101.63 19.68 101 21.06 100.48 22.48 100.06 23.93 99.56 25.22 99 26.48 98.47 27.74 98.01 29.04 97.59 30.36 97.08 31.63 96.58 32.91 95.92 34.13 95.39 35.4 94.79 36.64 94.31 38 93.83 39.36 93.17 40.65 92.56 41.96 91.93 43.26 91.35 44.59 90.76 45.91 90.09 47.2 89.47 48.45 89.2 49.83 89.49 51.2 89.92 52.54 90.92 53.55 92.2 54.12 93.51 54.59"/>
        <polygon class="cls-1" points="54.62 97.7 55.08 96.5 55.5 95.3 55.96 94 56.24 92.65 56.13 91.28 55.95 89.91 55.55 88.59 55.01 87.32 54.42 86.14 53.44 85.23 52.16 84.94 50.87 85.12 49.78 85.88 48.96 86.93 48.4 88.41 48.15 89.97 47.83 91.52 48.12 91.58 48.13 92.98 48.24 94.25 48.48 95.51 49.01 96.68 49.75 97.71 50.7 98.57 51.76 99.21 52.97 99.44 53.98 98.75 54.62 97.7"/>
        <polygon class="cls-1" points="95.11 88.01 94.85 86.75 94.11 85.7 93.04 84.98 91.79 84.64 90.55 85.37 89.39 86.24 88.66 87.49 88.42 88.91 88.48 90.35 88.79 91.78 87.54 92.81 88 94.25 88.28 95.69 88.88 97.03 89.84 98.13 90.92 99.12 92.37 99.53 93.79 98.94 94.85 97.84 95.36 96.41 95.62 94.91 95.71 93.39 95.72 92.03 95.63 90.68 95.41 89.34 95.11 88.01"/>
        <path class="cls-1" d="M90.36,47.32l.09-1.56.68-1.28L92,43.29l.51-1.37.84-1.2.47-1.37.7-1.28L95,36.73l.51-1.27.38-1.33.36-1.34.59-1.25.44-1.3.77-1.17.8-1.16.16-1.42.36-1.33.34-1.32.57-1.41.39-1.49.75-1.37,1.13-1.08,1.27-.81,1.43.37.77,1.29.29,1.4.5,1.31.33,1.29.2,1.33.21,1.32.18,1.32.16,1.32.21,1.31.17,1.32.42,1.27.64,1.25,0,1.35-.12,1.35.19,1.32.35,1.29-.21,1.36.8,1.25-.5,1.39.25,1.31.33,1.29.21,1.42-.08,1.44.13,1.42.34,1.41.11,1.43-.23,1.33-.09,1.33.39,1.33.13,1.34-.64,1.32.07,1.33.16,1.31-1,.54-.89.64-1.35-.13-1.33-.53L105,62l-1.16-.83-1.36-.55-1.1-.91-1.12-.89-.72-1.34-1.43-.51-.87-1.17-1.1-1-1.38.08-1.2-.69-1.38-.1-1.28-.57-1.17-.89-.63-1.35.38-1.44.29-1.31ZM38.22,62.69l-.79,1.52L36,64.78l-1.56,0L33.35,64l-.56-1.2-.52-1.17,0-1.43-.09-1.43-.08-1.42-.22-1.41-.25-1.42V53.07l-.15-1.43.23-1.43L32,48.78l-.38-1.42L31.5,46l-.11-1.39.1-1.38-.15-1.39.05-1.38.27-1.38.18-1.38-.19-1.4.23-1.37.23-1.31,0-1.35.25-1.31.4-1.28.38-1.27.41-1.27.4-1.27.32-1.29.38-1.43.12-1.49-.07-1.55.6-1.39.65-1.36.49-.74,1.3.92.59,1.26,1.31.72.15,1.5.71,1.14.73,1.15.56,1.23L42,25.86l.58,1.4.83,1.28.61,1.38.23,1.51.29,1.31.8,1.13L46,35.06l-.06,1.48.62,1.19.71,1.14.44,1.27.56,1.21.82,1.09.55,1.22.51,1.23.38,1.28.85,1.17L52,48.6l.68,1.24.13,1.42.08,1.17-.74.93-1.32.42-1.16.84-1.47.21-1.09,1-1.13.83-1,.94-1.12.82-1.42.46-1.1.88-.84,1.16-.93,1.05ZM48.45,93l-.6-1.34-.24-.12L48.12,90l.14-1.59.8-1.38.71-1.11,1.16-.62L52.16,85l1.2.37,1,.76.82,1.09.43,1.32.51,1.3v1.41l-.26,1.36L56,94l-.41,1.34-.3,1.2-.5,1.23L54.24,99,53,99.72l-1.31-.4-1-.75-1.15-.67-.66-1.15-.42-1.23L48,94.3ZM76.5,130.05l-1.1,1-1.33.26-1.36-.07-1.34.17-1.3-.38-1.32-.17-1.19-.61-1.16-.62-.94-.79-.94-.86-1-1,.78-1.29.94-1.16,1.4.45.81,1.15,1.43.62,1.4.36H71.7l1.43-.11,1.32-.59,1.29-.62,1.37-.61.83,1,.75,1.12-.2,1.34-.76,1.07Zm5.4-8-1.37.49-1.33-.29L78,121.58l-1.28-.44-1-.93-1.11-.75-.81-1.06L73,117.35l-.89-1.28-.37,0-1,1.24-1.18,1.06-1.1,1.16-1.24.66-1.31.46-1.07.91-1.28.56-1.34.4-1.39.07-1.39.2L58,122.56l-1.28-.64-1.17-.76-1.28-.63-.87-1.13-.66-1.24L52,116.9l-.15-1.44.33-1.44,1.28-1,1.2-.93.73,1.08.81,1.09.51,1.06.74,1,1,.45,1.31.33,1.39.21,1.37-.25,1.28-.56,1.37-.42.46-1.44,1.31-.73.58-1.26.37-1.33.28-1.33-1.38-.82-1.54-.51-1.38-.24-1.2-.76-.75-1.2-.57-1.23L60.64,104l-.12-1.37,1.09-.92.79-.89,1.09-.92,1.31-.56,1.29-.57,1.26-.73,1.4-.34,1.42-.18,1.44.06,1.47-.23,1.28.24,1.28.25,1.1.86,1.38-.14,1.11.74,1.11.63,1.18.6.31,1.31.67,1.1.25,1.29,0,1.56-.78,1.39-1.46.64-1.27.71-1.33.94-1.47.68-1.66.48.87,1.15.56,1.18.9,1,.66,1.12.92.93.81.9,1.13.6,1.28.21,1.28-.51,1.65.09L86,116l.28-1.64,1-1.26,1.29-.59,1,.53.41,1,0,1.09,0,1.33-.29,1.31-.47,1.28-.82,1.13-1.31.53-1.18.62-1.25.49-1.32.48ZM93.59,98.68l-1.18,1.17-1.62-.56-1-1.15-1-1.06-.42-1.42L88,94.26l-.36-1.43,1.26-1-.24-1.5-.24-1.42.07-1.48.84-1.25,1.08-1,1.39-.49,1.12.64,1.24.37.83,1L95.42,88l.12,1.35.4,1.32L96.07,92l-.26,1.38-.26,1.5.07,1.57-.68,1.43Z"/>
        <polygon class="cls-1" points="48.35 138.44 48.48 137.1 47.95 135.84 47.91 134.5 46.99 133.44 46.74 132.15 46.25 130.94 45.54 129.82 44.84 128.58 44.2 127.31 43.82 125.83 42.65 124.9 41.75 123.77 40.44 123.08 39.62 121.78 38.51 120.8 36.88 120.7 35.54 120.04 34.02 119.83 32.91 118.68 31.42 118.45 30.08 117.85 28.86 116.98 27.4 116.66 26.13 116.19 24.96 115.5 23.77 114.85 22.53 114.32 21.29 113.78 20.04 113.27 18.85 112.61 17.57 112.07 16.22 111.72 14.93 111.22 13.53 110.7 15.05 110.16 15.77 108.7 16.98 107.9 18.21 107.15 19.37 106.4 19.78 105.22 19.21 104.07 18.47 102.97 17.13 102.95 15.87 102.46 14.6 101.97 13.2 102.07 11.97 101.38 10.63 101.21 9.33 100.85 7.74 100.67 8.94 99.06 10.21 98.46 11.38 97.68 12.65 97.04 13.9 96.33 14.95 95.37 15.71 94.13 16.39 92.84 17.75 92.19 18.88 91.31 19.51 89.99 20.18 88.72 21.09 87.66 22.46 87.06 22.79 85.61 24.02 84.86 24.66 83.66 24.86 82.28 25.55 80.97 26.08 79.58 27.09 78.48 27.59 77.1 28.92 76.16 29.01 74.61 29.19 73.2 29.54 71.81 29.22 70.42 29.32 68.63 28.65 67.04 28.99 66.17 29.38 64.89 29.45 63.56 29.36 62.25 28.98 60.95 28.41 59.69 28.71 58.24 28.8 56.81 28.42 55.43 28.52 53.99 27.88 52.64 27.98 51.21 27.41 49.83 27.48 48.49 27.51 47.17 28.06 45.85 28.03 44.53 28.14 43.21 28.15 41.89 28.05 40.57 27.93 39.21 27.89 37.85 27.46 36.47 28.22 35.15 28.27 33.79 28.24 32.42 28.2 31.04 28.83 29.76 28.91 28.39 28.8 26.98 29.22 25.67 29.31 24.28 30.39 23.17 30.16 21.68 31.31 20.45 31.37 18.88 31.8 17.43 32.42 16.03 32.51 14.2 33.54 13.15 33.29 11.57 34.52 10.57 35.03 9.28 35.17 8.01 36.28 8.85 37.11 10.12 38.42 10.97 38.77 12.6 39.62 13.79 40.8 14.67 41.34 15.93 42.1 17.06 42.36 18.48 43.23 19.55 44.05 20.64 44.49 21.96 45.49 22.96 45.84 24.32 46.74 25.38 47.11 26.72 48.07 27.75 48.45 29.09 49.02 30.32 49.85 31.43 49.97 32.91 50.46 34.21 51.26 35.38 52.16 36.52 52.69 37.81 52.55 39.37 53.71 40.41 54.05 41.77 54.64 43.04 54.61 44.54 55.41 45.73 56.26 46.9 56.04 48.47 56.5 49.78 57.68 50.83 58.37 52.15 59.85 52.9 61.08 52.25 62.27 52.83 63.5 52.8 64.87 52.32 66.32 52.03 67.53 51.2 68.98 51.19 70.38 50.36 71.76 50.92 73.14 51.23 74.48 50.78 75.74 50.83 77.03 51.34 78.33 51.97 79.8 52.13 81.14 51.25 82.65 51.73 83.81 50.91 84.8 49.91 85.07 48.48 85.04 46.92 85.67 45.64 86.32 44.37 87.11 43.15 87.88 41.93 88.18 40.52 88.64 39.17 89.01 37.78 89.73 36.64 90.55 35.54 91.05 34.3 91.14 32.89 91.48 31.59 92.48 30.56 92.45 29.1 93.15 27.95 93.89 26.81 94.17 25.48 94.89 24.34 95.64 23.22 96.47 22.14 97.09 20.85 97.37 19.36 98.04 18.08 99.05 17 100.06 15.95 100.47 14.48 101.34 13.33 102.64 12.53 103.49 11.38 104.27 10.15 105.02 8.87 106.12 8.57 106.95 9.43 107.09 10.82 107.94 11.92 108.19 13.25 108.83 14.44 108.89 15.92 109.62 17.17 109.79 18.6 110.53 19.85 110.96 21.2 111.48 22.52 111.35 24.03 111.81 25.37 112.65 26.62 112.49 28.11 113.3 29.39 113.56 30.78 113.44 32.25 113.94 33.6 113.73 35.06 114.38 36.4 114.32 37.84 114.88 39.2 114.63 40.65 115.01 42.05 115.19 43.4 114.57 44.77 115.01 46.13 114.59 47.47 114.36 48.82 114.54 50.17 114.6 51.53 114.65 52.89 114.8 54.25 114.73 55.6 114 56.93 114.28 58.3 114.43 59.83 114.24 61.36 114.01 62.89 114.48 64.38 115.33 64.58 113.62 65.86 114.13 67.18 114.46 68.68 113.28 69.84 113.66 71.42 112.82 72.71 113.55 73.93 113.63 75.37 114.6 76.44 115.02 77.75 115.73 78.91 116.15 80.24 116.74 81.52 118.14 82.15 119.08 83.1 120.21 84.02 121.26 85.06 122.26 86.17 122.7 87.61 123.67 88.63 124.87 89.42 125.75 90.5 126.84 91.38 127.81 92.4 128.86 93.33 130.27 93.8 131.36 94.67 132.06 96.06 133.54 96.24 134.29 97.5 135.58 97.93 136.55 98.7 135.51 99.48 134.05 99.41 132.92 100.37 131.51 100.35 130.25 100.86 128.97 101.27 127.67 101.64 126.72 102.67 125.42 103.14 124.98 104.45 124.83 105.86 126.12 106.92 127.24 108.02 128.85 108.17 130.57 108.96 129.1 109.93 128.12 111.04 126.83 111.6 125.45 112 124.2 112.59 123.03 113.32 122.12 114.56 120.59 114.58 119.49 115.52 118.09 115.73 116.91 116.58 115.59 117.04 114.33 117.33 112.99 117.53 111.77 118.02 110.56 118.51 109.26 118.53 107.9 119.18 106.48 119.49 105.08 119.97 103.94 120.89 102.91 121.92 102.11 123.14 100.78 123.89 99.95 125.07 99.09 126.22 98.58 127.53 97.95 128.72 97.27 129.88 96.41 130.97 95.94 132.26 95.86 133.65 94.8 134.78 94.91 136.21 94.63 137.55 94.64 138.92 94.81 140.29 94.53 140.8 96.04 140.94 97.56 140.8 99.09 141.04 100.58 140.72 100.27 140.06 100.45 138.69 100.66 137.4 100.87 136.08 101.44 134.88 101.6 133.44 102.44 132.37 103.23 131.31 103.69 130.03 104.52 128.99 105.29 127.89 106.5 127.21 107.7 126.36 108.73 125.22 110.09 124.59 111.53 124.2 112.98 123.92 114.27 123.19 115.69 122.93 116.95 122.22 118.22 121.58 119.49 120.92 120.97 120.76 122.2 120.02 123.46 119.34 124.73 118.7 126.03 118.12 127.52 117.91 128.77 117.21 129.94 116.37 131.35 116.06 132.32 115.03 133.13 113.86 134.5 113.36 135.25 112.15 136.37 111.54 136.41 110.21 136.99 109.31 136.48 108.18 136 106.92 135.26 105.53 136.84 105.16 138.18 104.72 139.56 104.49 141.18 104.53 142.29 103.44 143.62 102.41 143.59 101.03 143.98 99.73 143.6 98.42 142.94 97.36 142.12 96.35 141 95.56 139.88 94.77 138.86 93.85 137.52 93.31 136.72 91.98 135.15 91.77 134.18 90.69 132.89 90 132.42 88.41 130.85 87.98 130.35 86.44 129.03 85.74 128.17 84.57 127.11 83.61 126.11 82.58 125.07 81.6 124.02 80.62 123.08 79.54 121.9 78.05 120.67 76.97 120.17 75.62 120.2 74.1 119.56 72.77 119.56 71.31 119.36 69.86 119.82 68.48 119.56 67.05 120.16 65.66 120.13 64.25 120.33 62.84 120.4 61.43 120.04 60.01 119.91 58.6 119.99 57.19 120.09 55.78 120.33 54.36 119.71 52.95 120.42 51.54 119.8 50.13 120.37 48.72 119.89 47.3 119.68 45.91 120.29 44.51 120.4 43.1 120.34 41.7 120.04 40.31 119.65 38.94 119.72 37.54 119.35 36.17 119.12 34.8 119.17 33.38 119.02 31.99 118.96 30.58 118.75 29.2 118.32 27.85 117.56 26.59 117.38 25.2 117.09 23.84 116.49 22.55 116.12 21.21 116.19 19.74 115.59 18.46 115.07 17.17 115.21 15.66 114.37 14.58 113.67 13.47 113.59 12.12 113.3 10.85 112.66 9.73 111.76 8.7 111.48 7.37 111.44 6.12 111.17 4.92 111.04 3.52 110.25 2.44 109.29 1.51 107.86 1.24 107 0.06 105.44 0 103.87 0.51 103.18 1.88 102.24 2.76 100.86 3.32 100.09 4.43 99.31 5.54 98.54 6.64 98.15 7.97 97.74 9.29 96.36 10.05 96 11.49 95.36 12.74 94.22 13.64 93.64 14.99 92.95 16.28 92.38 17.62 91.22 18.59 90.86 19.98 89.99 21.1 89.42 22.38 88.76 23.62 88.77 25.15 88.31 26.47 87.53 27.65 86.62 28.79 86.71 30.33 85.6 31.38 85.69 32.92 85.07 34.17 84.57 35.48 83.7 36.64 83.02 37.87 82.77 39.26 82.16 40.52 81.81 41.87 81.09 43.09 80.67 44.38 79.33 44.74 77.89 44.48 76.52 44.83 75.16 45.35 73.72 45.07 72.36 45.55 70.94 45.5 69.54 45.65 68.12 45.56 66.75 45.96 65.34 45.9 63.98 46.37 62.74 46.02 62 45.11 61.26 43.98 61.09 42.6 60.68 41.33 59.9 40.22 59.32 39.01 58.78 37.79 58.2 36.59 57.91 35.26 57.11 34.15 56.75 32.84 56.22 31.61 55.53 30.44 56.17 29.54 54.48 28.3 54.1 26.97 53.56 25.74 52.78 24.64 52.25 23.4 51.7 22.18 51.03 21.02 50.17 19.96 49.75 18.66 48.63 17.76 47.87 16.65 47.23 15.48 46.93 14.09 45.95 12.98 44.96 11.9 44.04 10.77 43.13 9.64 42.6 8.24 41.89 6.95 40.88 5.89 40.15 4.62 39.04 3.63 38.09 2.54 37.31 1.2 35.91 0.5 34.35 0.57 33.05 1.32 31.87 2.13 30.98 3.44 29.69 4.53 29.2 6.09 28.86 7.45 28.16 8.7 27.65 10.01 27.39 11.38 27.62 12.9 27.07 14.17 26 15.23 25.89 16.63 25.95 18.01 25.59 19.3 24.85 20.5 24.87 21.87 24.64 23.18 24.07 24.42 23.84 25.74 23.47 27.02 22.99 28.43 22.73 29.89 22.75 31.4 22.46 32.87 22.74 34.29 22.48 35.7 22.76 37.13 22.22 38.52 22.35 39.95 22.03 41.35 21.9 42.76 22.56 44.2 21.71 45.59 22.03 47.02 22.27 48.43 22.01 49.85 22.59 51.24 22.6 52.55 22.4 53.88 22.65 55.17 22.95 56.46 22.86 57.79 23.3 59.07 22.89 60.4 22.97 61.7 22.89 63 23.33 64.44 23.04 65.86 23.02 67.28 23.36 68.69 23.24 70.12 23.22 71.56 22.85 72.95 22.43 74.31 22.46 75.69 21.57 76.75 21.44 78.13 20.32 79 20.08 80.38 19.51 81.59 18.54 82.5 17.36 83.25 16.82 84.48 15.69 85.23 15.29 86.62 14.11 87.31 13.22 88.26 12.43 89.31 11.35 90.09 10.57 91.22 9.23 91.69 8.58 92.99 7.23 93.44 6.07 94.1 5.26 95.22 4.26 96.1 3.15 96.83 2.33 97.93 1.2 98.77 0 99.78 0.13 101.35 0.2 102.75 0.21 104.15 0.26 105.75 1.65 105.88 3 105.64 4.14 106.59 5.51 106.28 6.78 106.53 7.73 107.12 7.1 108.13 6.63 109.45 5.92 110.67 5.46 112.14 6.57 112.94 7.49 113.74 8.56 114.33 9.35 115.26 10.53 115.74 11.36 116.7 12.59 117.02 13.66 117.39 14.78 117.6 16.03 118.41 17.37 118.98 18.8 119.33 20.21 119.75 21.53 120.37 22.85 121 24.07 121.83 25.46 122.3 26.71 123.01 28.3 122.95 29.48 123.82 30.92 124.11 32.15 124.87 33.35 125.67 34.84 125.99 35.99 126.88 37.16 127.77 37.73 129.23 38.96 129.91 39.61 131.09 40.18 132.29 40.78 133.44 42.03 134.3 42.4 135.61 42.71 136.92 43.01 138.24 42.77 139.59 42.62 141 43.97 140.58 45.29 140.5 46.62 141.21 48.05 141.29 47.89 139.65 48.35 138.44"/>
      </g>
    </g>
  </g>
</svg>
