<svg width="145" height="115" viewBox="0 0 145 115" fill="none" xmlns="http://www.w3.org/2000/svg">
<path d="M0.42 88H1L1.72 87.8L2.44 87.96L3.16 87.66L3.88 87.86L4.6 87.98L5.3 88H6.02L6.74 87.87L7.46 87.79L8.18 87.67L8.91 87.61L9.63 87.86L10.36 87.95L11.08 87.62L11.81 87.73L12.53 87.63L13.25 87.51L13.98 87.73L14.71 87.51L15.44 87.63H16.25L16.1 88.48L15.96 89.24L16.09 90.01L16.02 90.65L15.44 91.01L14.72 90.76H13.99L13.26 90.99L12.54 90.58L11.81 90.72L11.08 91.06L10.35 90.74L9.63 90.64L8.9 90.75L8.17 91L7.44 90.71L6.71 91H5.98L5.25 91.21L4.52 90.84H3.71L3.52 91.61L3.99 92.3L3.67 93L3.86 93.69L3.73 94.38L3.88 95.07L3.94 95.76L3.55 96.45L3.91 97.14L4 97.83L3.56 98.53L3.66 99.35L4.51 99.28L5.24 99.46H6L6.73 99.17L7.46 99.25L8.2 99.36L8.93 99.23L9.66 99.36L10.39 99.11L11.13 99.38L11.87 99.04L12.61 99.13H13.5L13.44 100.03L13.49 100.78L13.27 101.53L13.36 102.29L12.62 102.4H11.88L11.15 102.3L10.4 102L9.67 102.44L8.93 102.04L8.2 102.15H7.46L6.73 102L6 102.42L5.26 102.31L4.52 102L3.86 102.22L3.7 102.85L4 103.57L3.6 104.28V104.99L3.5 105.71L3.72 106.42L3.96 107.13L3.58 107.85L3.98 108.56L3.53 109.28L3.86 109.99L3.74 110.71L3.96 111.42L3.68 112.14L3.75 112.86L3.64 113.58V114.23L3.01 114.1L2.31 114.44L1.6 114.13L0.9 114.37L0.26 114.23L0.45 113.59V112.87L0 112.19V111.48L0.38 110.76L0 110.05V109.33L0.21 108.62L0.41 107.9L0.17 107.19V106.47L0.24 105.76L0.4 105L0.22 104.29L0.47 103.57L0.37 102.85L0.18 102.14L0.07 101.42L0.13 100.71V100L0.37 99.29V97.14L0.14 96.42L0.03 95.7L0.45 95L0.07 94.29L0.51 93.57L0.45 92.85L0.27 92.13L0.18 91.41V90.69L0.41 90L0.05 89.28L0.49 88.59L0.42 88Z" fill="#FF6C33"/>
<path d="M20.32 101.08L20.27 100.36L20.2 99.64L20.31 98.93L20.53 98.24L20.84 97.58V96.84L21.25 96.23V95.47L21.76 94.91L21.93 94.21L22.23 93.56L22.48 92.88L22.78 92.21L23.51 91.87L23.7 91.09L24.49 90.87L24.97 90.34L25.56 89.95L26 89.35L26.7 89.13L27.23 88.58L27.9 88.32L28.62 88.2L29.27 87.89L30 88L30.69 87.84L31.37 87.68L32.06 87.31L32.79 87.75L33.49 87.63L34.23 87.35L34.92 87.62L35.63 87.69L36.34 87.82L36.98 88.18L37.71 88.26L38.19 88.92L38.79 89.26H39.63L40.12 89.81L40.75 90.17L41.29 90.64L41.82 91.13L42.22 91.73L42.37 92.5L43.03 92.91L43.49 93.46L43.66 94.18L44.13 94.75L44.32 95.45L44.42 96.16L44.62 96.85L44.88 97.51L45.16 98.19L45.24 98.91L45.02 99.64L44.97 100.35L45.35 101.06L45.21 101.77L44.9 102.46L44.79 103.15L44.67 103.84V104.55L44.48 105.23L44.21 105.87L43.98 106.53L44.1 107.34L43.45 107.82L43.4 108.59L43.12 109.26L42.66 109.81L42.33 110.46L41.71 110.87L41.19 111.36L40.65 111.81L40.17 112.35L39.46 112.57L38.95 113.08L38.2 113.15L37.61 113.54L37.07 114.11L36.3 114.05L35.66 114.42H34.93L34.23 114.54L33.53 114.69L32.82 114.75L32.11 114.52L31.42 114.33L30.67 114.62L30 114.3L29.28 114.24L28.7 113.73H27.95L27.36 113.32H26.57L26.1 112.71L25.54 112.29L24.82 112.04L24.28 111.56L23.98 110.86L23.42 110.41L23.13 109.74L22.64 109.22L22.31 108.59L21.86 108.03L21.6 107.37L21.44 106.66L21 106L20.58 105.38L20.52 104.65L20.71 103.89L20.47 103.21L20.27 102.52L20.55 101.79L20.32 101.08ZM32.75 111.48L33.47 111.38L34.16 111.19L34.86 111.07L35.58 110.97L36.32 110.85L36.88 110.34L37.61 110.12L38.01 109.46L38.72 109.15L39.1 108.5L39.51 107.9L39.78 107.22L40.01 106.54L40.65 106.05L40.58 105.24L41.19 104.69L41.31 103.96L41.51 103.26L41.37 102.51L41.61 101.8L41.39 101.08V100.36L41.46 99.63L41.25 98.94L41.41 98.16L41.19 97.46L40.89 96.79L40.33 96.24L40.44 95.39L40 94.82L39.33 94.39L39 93.71L38.47 93.22L38 92.75L37.54 92.18L36.85 91.94L36.41 91.23L35.73 90.92L34.9 91.13L34.24 90.81H32.8L32.09 90.88H31.37L30.58 90.7L29.97 91.22L29.36 91.59L28.64 91.76L28.15 92.32L27.54 92.7L26.93 93.1L26.44 93.64L26.09 94.28L25.82 94.95L25.47 95.57L24.89 96.09L24.54 96.74L24.66 97.54L24.36 98.21L23.95 98.87L23.81 99.59L23.72 100.33L23.8 101.07V102.54L23.9 103.28L24.44 103.91L24.26 104.71L24.77 105.31L25.14 105.94L25.38 106.62L25.84 107.18L26.05 107.9L26.47 108.49L26.94 109.05L27.54 109.46L27.97 110.09L28.68 110.35L29.19 110.95L29.92 111.13L30.72 111.01L31.36 111.44L32.1 111.32L32.75 111.48Z" fill="#FF6C33"/>
<path d="M60.21 103.65L59.63 104.16L59.45 104.88L59.23 105.57L58.97 106.24L58.09 107.36L57.75 107.98L57.32 108.55L57.04 109.21L56.85 109.92L56.1 110.3V111.15L55.43 111.58L55.12 112.22L54.72 112.81L54.44 113.47L53.84 113.95L53.73 114.77L53.17 114.35L52.75 113.8L52.08 113.63L51.57 113.2L51.16 112.86V112.19L51.48 111.55L52.26 111.18L52.34 110.4L52.69 109.77L52.91 109.07L53.4 108.52L53.81 107.93L54.03 107.22L54.58 106.71L55.16 106.22V105.35L55.68 104.82L56.13 104.25L56.52 103.64L56.87 103.02L57.34 102.45V101.63L57.99 101.17L58.4 100.47L57.68 99.97L57.33 99.34V98.49L56.91 98L56.49 97.4L56 96.8L55.86 96.05L55.45 95.45L55.22 94.75L54.46 94.36L54.21 93.66L54 93L53.75 92.31L53.46 91.64L53 91.05L52.68 90.39L52.18 89.84L51.75 89.22L52.53 89.08L53.15 88.73L53.67 88.19L54.17 87.62L54.91 87.4L55.2 88.11L55.43 88.82L55.79 89.45L56.17 90.08L56.78 90.57L57.15 91.2L57.42 91.88L57.87 92.47L58.34 93.04L58.54 93.77L58.82 94.46L59.45 94.94L59.74 95.62L59.95 96.35L60.38 97.17L60.76 96.32L61.03 95.63L61.51 95.07L61.92 94.46L62.22 93.78L62.8 93.27L62.9 92.48L63.28 91.85L63.79 91.3L63.92 90.53L64.53 90.03L64.81 89.35L65.38 88.83L65.56 88.07L65.98 87.53L66.55 87.7L67.02 88.2L67.62 88.45L68.09 88.95H69.09L68.5 89.63L67.94 90.13L67.79 90.87L67.57 91.57L67.11 92.13L66.55 92.63L66.2 93.25V94.06L65.66 94.57L65.03 95.04L64.84 95.75L64.31 96.27L64.24 97.06L64.03 97.77L63.3 98.18V98.99L62.6 99.41L62.27 100.14L62.74 100.76L62.99 101.42L63.49 101.94L63.83 102.55L64.3 103.09L64.55 103.77L64.93 104.37L65.36 104.93V105.75L65.78 106.32L66.3 106.84L66.65 107.45L67.05 108.04L67.52 108.58L67.62 109.35L68 109.94L68.57 110.43L68.9 111.06L69.09 111.77L69.71 112.24L69.88 112.98L69.34 113.47L68.74 113.85L68.12 114.19L67.26 114.11L66.77 114.64L66.45 114.05L65.92 113.55L65.59 112.92L65.2 112.33L64.97 111.64L64.51 111.1L64.05 110.55L63.97 109.78L63.54 109.21L63.29 108.53L62.72 108.04L62.34 107.45V106.64L61.99 106.03L61.69 105.38L60.92 105L60.84 104.22L60.21 103.65Z" fill="#FF6C33"/>
<path d="M77.56 111.24L78.32 111.4L79.02 111.09L79.72 111.15L80.42 111.35L81.12 111.29L81.76 111.23L81.87 110.57L81.67 109.85L81.96 109.12V107.66L81.65 106.93L81.82 106.2V105.47L81.62 104.74L81.69 104.02V103.29L81.83 102.57L81.94 101.84L81.68 101.11L81.97 100.38L81.69 99.65L82.04 98.92L81.72 98.19L81.59 97.46L81.75 96.73L82 96L81.8 95.27L82.04 94.54L81.66 93.81L81.9 93.07V92.34L81.77 91.6L81.85 90.83L81.11 91.03L80.41 90.72L79.7 91.09L78.99 90.79L78.28 90.66L77.54 90.89V90.11L77.6 89.35L77.4 88.59L77.55 87.77L78.32 88.05L79.03 87.68L79.73 87.57L80.43 87.68L81.13 87.96L81.83 87.86L82.54 87.57L83.24 88.02L83.94 87.67H84.65L85.35 88H86L86.7 87.92L87.41 88.01L88.11 87.91H89.41V88.55L89.23 89.31L89.5 90.06L89.36 90.71L88.8 90.85H87.42L86.72 90.67H86.02L85.31 90.81L85.38 91.55L85.32 92.28V93.01L85.15 93.73L85.23 94.46L85.15 95.19L85.56 95.92L85.35 96.65L85.53 97.38L85.42 98.11L85.32 98.83L85.62 99.56V101.02L85.23 101.75L85.52 102.47L85.38 103.2L85.24 103.94V104.67L85.69 105.4L85.61 106.13V106.86L85.67 107.6L85.48 108.33L85.41 109.06L85.66 109.8V110.53L85.28 111.4L86.11 111.52L86.8 111.16L87.49 111.43L88.19 111.29L88.88 111.05L89.52 111.33L89.83 112.03L89.41 112.78L89.61 113.54V114.35L88.85 114.42H88.16L87.45 114.61L86.76 114.34L86.06 114.16L85.36 114.1L84.66 114.44L83.95 114.6L83.25 114.26L82.55 114.48L81.85 114.32L81.15 114.59L80.45 114.32L79.74 114.46H79L78.29 114.39L77.72 114.23L77.6 113.6L77.8 112.84L77.73 112.07L77.56 111.24Z" fill="#FF6C33"/>
<path d="M100.79 87.7L101.63 87.98H102.35L103.07 88.07H103.79L104.51 87.84L105.23 87.76L105.95 87.81L106.67 87.87L107.39 88.02L108.11 87.63L108.83 88.07L109.56 87.69L110.28 88.04L111.01 87.74L111.73 87.6L112.46 87.98L113.18 88.08H113.9L114.63 87.94L115.36 87.77L116.09 87.89L116.88 87.78L116.94 88.61L116.79 89.37V90.14L116.73 90.79L116.13 90.71L115.41 90.8L114.68 91.1L113.95 91.02H113.23L112.5 91.18H111.77L111.05 90.89L110.32 91.02L109.59 91.1L108.86 90.73L108.13 91.01L107.4 91.17L106.67 90.9L105.94 90.77L105.21 90.87L104.62 91.07L104.54 91.61L104.63 92.3V92.99L104.31 93.68V95.06L104.73 95.75L104.36 96.44L104.21 97.13V97.82L104.67 98.52L104.61 99.04L105.17 99.38H106.64L107.37 99.44L108.1 99.23L108.84 99.01L109.57 99.46L110.3 99.15L111 99L111.73 99.25L112.47 99.18H114.01L113.69 99.99L113.89 100.74L113.73 101.49L113.81 102.1L113.22 102L112.49 102.39L111.75 102.46L111.02 102.31L110.29 102.07L109.55 102.48L108.82 102.09L108.08 102.49L107.35 102.42H106.62L105.88 102.18L105.14 102.07L104.4 102.23L104.33 102.93L104.43 103.63L104.3 104.33L104.36 105.03L104.5 105.73L104.25 106.44L104.38 107.14L104.61 107.84L104.35 108.54L104.56 109.24L104.43 109.95V110.65L104.33 111.44L105.13 111.31L105.85 111.44L106.58 111.24L107.31 111.57L108.03 111.34L108.76 111.2L109.48 111.44L110.21 111.53L110.94 111.37H113.13L113.85 111.54L114.59 111.36L115.32 111.48H116.05L116.8 111.39L116.54 112.17L116.96 112.92L116.76 113.68L116.7 114.36H116.06L115.34 114.28L114.62 114.21H113.91L113.19 114.35L112.47 114.18L111.75 114.49H110.3L109.58 114.19L108.14 114.47L107.41 114.54L106.69 114.6L105.96 114.36L105.24 114.24L104.52 114.35L103.79 114.24L103.07 114.41H102.34L101.61 114.15H101.03V113.59L100.85 112.87V112.16L100.76 111.45L101.08 110.73L100.96 110.02L100.86 109.3L101.05 108.59L101.14 107.87L101.07 107.16L100.67 106.44L100.73 105.73L101.12 105.01L100.93 104.3L100.7 103.58V102.86L100.98 102.15L100.79 101.43V100.72L101 100V99.29L101.06 98.57L101.15 97.85V97.14L100.97 96.42L101.08 95.7L100.9 94.98L101.03 94.27L100.83 93.55L101.12 92.83L101 92.11L101.15 91.39V90.67L100.71 89.95L101.21 89.23L101 88.5L100.79 87.7Z" fill="#FF6C33"/>
<path d="M123.63 108.29L124.49 108.16L124.91 107.53L125.63 107.32L126.28 107.01L126.73 106.5L127.02 107.01L127.48 107.56L128.01 108.05L128.46 108.58L128.66 109.39L129.33 109.72L129.96 110.06L130.5 110.55L131.07 111.01H132.56L133.16 111.58L133.89 111.64L134.61 111.22L135.33 111.7L135.95 111.12L136.69 111.24L137.3 110.89H138.07L138.5 110.25L139.09 109.88L139.49 109.3L140.01 108.8L140.41 108.17L140.13 107.39V106.72L140.02 106.05L139.87 105.41L139.6 104.81L139.5 104.04L138.96 103.56L138.27 103.32L137.7 102.91L137.02 102.7L136.37 102.42L135.68 102.21L134.92 102.36L134.23 102.17L133.64 101.58L132.84 101.84L132.25 101.26H131.5L130.84 100.95H130.08L129.54 100.36H128.73L128.22 99.79L127.57 99.45L127.03 98.97L126.61 98.38L126 98L125.87 97.24L125.77 96.51L125.58 95.84L125.17 95.18L125.34 94.44L125.1 93.71L125.2 92.98L125.59 92.33L125.68 91.58L126.16 91.01L126.77 90.57L127.29 90.11L127.79 89.63L128.12 88.86H128.94L129.47 88.33L130.2 88.26L130.81 87.8L131.51 87.6H132.24L132.97 87.75H134.42L135.13 87.98L135.9 87.85L136.6 88.1L137.26 88.43L137.97 88.62L138.67 88.86L139.4 89.08L139.83 89.76L140.43 90.18L140.97 90.67L141.63 91.08L142.15 91.63L142.56 92.45L141.88 92.78L141.38 93.23L141.01 93.83L140.2 93.92L139.86 94.55L139.52 93.94L139.02 93.45L138.44 93.05L138 92.4L137.5 91.9L136.87 91.6L136.31 91.16H135.59L134.93 90.99L134.27 90.7L133.56 90.62L132.82 90.76L132.08 90.84L131.47 91.35L130.78 91.51L130.12 91.83L129.75 92.45L129.32 93L129.14 93.65L128.8 94.31V95.03L129.28 95.59L129.63 96.15L130.02 96.71L130.51 97.24L131.2 97.44L131.79 97.86L132.5 97.97L133.2 98.08L133.89 98.18L134.49 98.61H135.19L135.88 98.72L136.57 98.85L137.26 99.05L137.87 99.54L138.56 99.73L139.28 99.87L139.81 100.42L140.51 100.62L141.25 100.82L141.61 101.53L142.3 101.86L142.5 102.61L143.2 103.02L143.5 103.69L143.71 104.4L143.82 105.12L144.02 105.83V106.57L144.08 107.32L143.94 108.06L143.5 108.71V109.49L142.83 109.98L142.66 110.72L142.14 111.24L141.78 111.9L141.29 112.46L140.62 112.8L140 113.2L139.37 113.56L138.67 113.8L138.04 114.24L137.23 114.06L136.61 114.66H135.85L135.13 114.92L134.38 114.43L133.65 114.9L132.97 114.37L132.23 114.55L131.55 114.28L130.85 114.15L130.17 113.93L129.5 113.7L128.83 113.42L128.23 113.02L127.73 112.49H126.87L126.31 112.03L125.99 111.31L125.35 110.93L124.96 110.31L124.41 109.83L124.19 109.1L123.63 108.29Z" fill="#FF6C33"/>
<path d="M56.34 26.56L56.04 25.92L55.76 25.24L55.33 24.63L55.13 23.92L54.87 23.28L54.63 22.63L54.4 22L54.05 21.4L53.81 20.74L53.39 20.18L53.12 19.53L52.92 18.87L52.6 18.25L52.39 17.59L52.1 16.96L52 16.25L51.79 15.49L51.38 14.82L51.19 14.05L50.8 13.37L50.67 12.66L50.33 12L49.95 11.4L49.64 10.77L49.29 10.16L48.92 9.56L48.5 9L47.78 8.45L47.44 8.91L47.28 9.67L47.05 10.41L46.81 11.14L46.63 11.89L46.54 12.66L46.43 13.34L46.19 14V14.69L46.01 15.36L45.85 16.02L45.78 16.71L45.65 17.38L45.54 18.06L45.43 18.78V21L45.36 21.72L45.3 22.44L45.39 23.16V23.88L45.3 24.59V26.08L45.38 26.81L45.32 27.56L45.45 28.29V29.04L45.55 29.77V30.52L45.63 31.25V32L45.89 32.62L46.25 33.2L46.79 33.6L47.55 33.51L48.28 33.17L48.92 32.7L49.39 32.14L49.84 31.56L50.43 31.12L50.92 30.58L51.5 30.13L52.13 29.76L52.71 29.32L53.37 29.01L53.97 28.59L54.65 28.31L55.28 27.94L55.98 27.73L56.16 27.15L56.34 26.56Z" fill="#FF6C33"/>
<path d="M77.45 28.25L78.12 28.32L78.78 28.51L79.34 28.97L79.91 29.44L80.5 29.89L81.11 30.31L81.63 30.83L82.19 31.32L82.81 31.72L83.41 32.14L84.11 32.41L84.77 32.72L85.47 32.85L85.96 32.53L86.47 32.19L86.56 31.52V27.38L86.46 26.64L86.53 25.89V25.15L86.43 24.41L86.32 23.68V23L86.21 22.31L86 21.63L85.94 20.94L85.81 20.26V19.56L85.62 18.89V18.19L85.45 17.52L85.35 16.84L85.28 16.15L85.11 15.48V14.78L84.84 14.13V13.43L84.67 12.76L84.46 12.1L84.21 11.45L84.1 10.72L83.82 10L83.5 9.35L82.8 9.03L82.22 9.58L81.72 10.17L81.37 10.87L81.01 11.57L80.8 12.33L80.6 13.01L80.31 13.67L80.11 14.36L79.79 15L79.55 15.67L79.23 16.31L79 17L78.68 17.64L78.41 18.3L78.2 19L77.84 19.67L77.54 20.35L77.27 21.06L77.01 21.76L76.68 22.44L76.25 23.06L76 23.8L75.65 24.46L75.4 25.14L75.18 25.83L75.31 26.55L75.66 27.16L76.07 27.75L76.71 28.12L77.45 28.25Z" fill="#FF6C33"/>
<path d="M74.89 58.36L74.05 58.56L73.68 59.36L73.41 60.15L72.89 60.81L72.06 60.95L71.4 60.91L70.75 60.88L70.15 60.64L69.61 60.27L69.23 59.72L68.8 59.19L68.1 58.03L67.8 57.45L68.56 57.15L69.34 56.84L70.1 56.47L70.75 56.05L71.31 55.52L71.69 54.84L71.74 54.08L71.77 53.4L71.56 52.75L71.16 52.2L70.63 51.8L70.04 51.46L69.4 51.27L68.75 51.13L68.11 50.95L67.45 50.84L66.81 50.64L66.06 50.67L65.32 50.59L64.58 50.73L63.86 50.9L63.15 51.12L62.49 51.46L61.8 51.76L61.25 52.26L60.7 52.65L60.42 53.27L60.45 53.95L60.69 54.63L61.01 55.27L62.06 56.24L62.74 56.49L63.55 56.7L64.31 57.06L64.14 57.76L63.8 58.38L63.49 59.01L63.1 59.6L62.6 60.09L62.03 60.5L61.33 60.65L60.63 60.81H59.92L59.2 60.8L58.78 60.33L58.51 59.76L58.18 59.22L57.78 58.62L57.28 58.05L56.65 58.64L56.08 59.21L56.01 59.91L55.99 60.63L56.32 61.28L56.67 61.9L57.16 62.42L57.68 62.92L58.34 63.22L59.03 63.39L59.73 63.57L60.45 63.56L61.15 63.37L61.85 63.24L62.54 63.07L63.15 62.68L63.78 62.36L64.33 61.9L64.95 61.35L65.58 60.81L66.13 60.21L66.22 60.3L66.77 60.9L67.18 61.46L67.61 62.01L68.16 62.42L68.73 62.83L69.38 63.07L70.03 63.32L70.71 63.48L71.41 63.43L72.13 63.49L72.83 63.28L73.55 63.16L74.19 62.8L74.7 62.3L75.17 61.77L75.52 61.14L75.75 60.46L75.83 59.74L75.72 59.14L75.42 58.63L74.89 58.36Z" fill="#FF6C33"/>
<path d="M78.31 45.65L78.14 44.99L77.75 44.45L77.18 44.11L76.54 43.89L75.88 44.25L75.31 44.75L74.93 45.39L74.8 46.12L74.82 46.87L74.99 47.61L74.31 48.14L74.57 48.9L74.73 49.64L75.05 50.32L75.54 50.9L76.1 51.41L76.84 51.64L77.59 51.34L78.11 50.75L78.38 50.01L78.5 49.23L78.57 48.44L78.6 47.74L78.52 47.04L78.39 46.35L78.31 45.65Z" fill="#FF6C33"/>
<path d="M57.27 50.7L57.48 50.06L57.69 49.43L57.96 48.77L58.08 48.06L58.05 47.35L57.91 46.64L57.7 45.96L57.48 45.28L57.11 44.7L56.61 44.24L55.97 44.05L55.3 44.18L54.73 44.55L54.31 45.09L53.99 45.85L53.87 46.67L53.72 47.48L53.85 47.51L53.88 48.23L53.91 48.9L54.06 49.55L54.32 50.16L54.71 50.69L55.2 51.14L55.75 51.48L56.38 51.57L56.92 51.24L57.27 50.7Z" fill="#FF6C33"/>
<path d="M68.92 64.99L68.28 65.39L67.6 65.75L66.87 65.97L66.12 66.11L65.35 66.04L64.63 65.8L64.01 65.35L63.47 64.86L62.81 64.75L62.31 65.26L61.96 65.89L62.38 66.4L62.83 66.88L63.32 67.31L63.93 67.65L64.58 67.86L65.26 68.03L65.94 68.08L66.64 68.11L67.32 68L68 67.85L68.66 67.66L69.22 67.31L69.57 66.75L69.62 66.09L69.38 65.48L68.92 64.99Z" fill="#FF6C33"/>
<path d="M68.92 64.98L68.3 65.43L67.6 65.75L66.88 66L66.11 66.09L65.35 66.03L64.62 65.81L64.02 65.34L63.49 64.84L62.8 64.73L62.33 65.27L61.97 65.89L62.4 66.38L62.83 66.88L63.33 67.29L63.93 67.64L64.58 67.88L65.26 68.03L65.94 68.1L66.64 68.11L67.32 67.98L68 67.84L68.66 67.66L69.22 67.3L69.56 66.75L69.6 66.1L69.38 65.48L68.92 64.98Z" fill="#FF6C33"/>
<path d="M74.88 58.41L74.07 58.58L73.69 59.36L73.39 60.14L72.85 60.74L72.06 60.95L71.4 60.99L70.74 60.94L70.14 60.66L69.67 60.23L69.2 59.73L68.8 59.19L68.53 58.56L68.09 58.03L67.73 57.42L68.54 57.12L69.31 56.78L70.06 56.4L70.73 56.03L71.3 55.51L71.67 54.84L71.84 54.08L71.74 53.4L71.5 52.78L71.14 52.23L70.66 51.76L70.02 51.54L69.41 51.25L68.76 51.08L68.11 50.92L67.47 50.76L66.81 50.66L66.06 50.6L65.32 50.67L64.58 50.72L63.87 50.94L63.18 51.19L62.49 51.47L61.81 51.76L61.22 52.22L60.74 52.68L60.45 53.28L60.47 53.95L60.66 54.64L60.97 55.29L61.48 55.81L62.08 56.21L62.76 56.41L63.55 56.7L64.3 57.06L64.1 57.74L63.85 58.41L63.48 59L63.07 59.57L62.65 60.14L62.01 60.43L61.34 60.69L60.63 60.8L59.92 60.79L59.21 60.75L58.79 60.33L58.54 59.75L58.18 59.22L57.75 58.64L57.28 58.15L56.66 58.65L56.05 59.19L55.93 59.91L56.06 60.62L56.28 61.3L56.63 61.93L57.15 62.43L57.71 62.88L58.34 63.22L59.02 63.47L59.73 63.55L60.45 63.49L61.16 63.43L61.86 63.3L62.52 63L63.15 62.68L63.78 62.35L64.37 61.95L64.97 61.37L65.51 60.74L66.13 60.21L66.23 60.28L66.74 60.92L67.16 61.48L67.62 61.99L68.2 62.38L68.73 62.82L69.36 63.12L70.03 63.33L70.71 63.45L71.41 63.47L72.13 63.44L72.84 63.33L73.54 63.14L74.18 62.79L74.72 62.32L75.22 61.8L75.52 61.14L75.75 60.46L75.73 59.74V59.14L75.44 58.6L74.88 58.41Z" fill="#FF6C33"/>
<path d="M56.41 26.56L56.04 25.92L55.66 25.29L55.41 24.6L55.14 23.92L54.83 23.3L54.66 22.61L54.34 22L54.08 21.35L53.75 20.74L53.44 20.12L53.14 19.5L52.93 18.83L52.55 18.24L52.31 17.59L52.08 16.93L51.97 16.25L51.72 15.5L51.37 14.8L51.06 14.08L50.75 13.37L50.52 12.7L50.32 12.02L49.98 11.4L49.68 10.77L49.35 10.14L48.95 9.56L48.4 9.11L47.79 8.56L47.48 8.94L47.23 9.67L47.06 10.43L46.9 11.18L46.64 11.91L46.5 12.68L46.31 13.34L46.22 14.02L46 15.38L45.76 16.04L45.71 16.73L45.64 17.41L45.56 18.09L45.5 18.8L45.39 19.52L45.43 20.24L45.39 20.95L45.34 21.67L45.25 22.39L45.24 23.11L45.25 23.83V24.55L45.27 25.29L45.34 26.02L45.4 26.77L45.32 27.51L45.38 28.99L45.47 29.73L45.57 30.46L45.66 31.2L45.59 31.95L45.87 32.57L46.22 33.15L46.76 33.55L47.52 33.46L48.24 33.1L48.86 32.62L49.32 32.06L49.8 31.5L50.36 31.03L50.89 30.53L51.5 30.13L52.1 29.7L52.69 29.28L53.3 28.88L53.93 28.51L54.61 28.25L55.3 28L55.93 27.66L56.12 27.1L56.41 26.56Z" fill="#FF6C33"/>
<path d="M77.44 28.3L78.11 28.42L78.78 28.51L79.38 28.93L79.95 29.39L80.49 29.89L81.05 30.37L81.65 30.81L82.21 31.28L82.78 31.76L83.48 32.03L84.09 32.44L84.77 32.75L85.48 32.89L85.97 32.54L86.47 32.19L86.44 31.52L86.54 30.83L86.55 30.14L86.5 29.45L86.48 28.76L86.5 28.07L86.45 27.38L86.51 26.63L86.44 25.89L86.32 25.16L86.34 24.41L86.3 23.67L86.11 23L86.13 22.3L86.05 21.62L85.94 20.94L85.78 20.26L85.75 19.57L85.74 18.88L85.53 18.21V17.51L85.36 16.84L85.24 16.16V15.46L84.99 14.81L84.97 14.11L84.79 13.44L84.54 12.79L84.39 12.11L84.23 11.44L84.08 10.72L83.91 10.01L83.49 9.39999L82.81 9.12L82.19 9.59L81.65 10.17L81.32 10.89L81.05 11.63L80.83 12.38L80.58 13.05L80.28 13.7L80.01 14.36L79.77 15.03L79.55 15.71L79.29 16.38L79.03 17.04L78.69 17.67L78.41 18.33L78.1 18.98L77.85 19.68L77.6 20.39L77.26 21.06L76.94 21.74L76.61 22.42L76.31 23.11L76.01 23.79L75.66 24.46L75.34 25.11L75.2 25.83L75.35 26.54L75.57 27.23L76.09 27.76L76.76 28.05L77.44 28.3Z" fill="#FF6C33"/>
<path d="M57.24 50.68L57.48 50.06L57.7 49.44L57.94 48.76L58.08 48.06L58.02 47.35L57.93 46.64L57.73 45.95L57.45 45.3L57.14 44.68L56.63 44.21L55.97 44.06L55.29 44.15L54.73 44.55L54.3 45.09L54.01 45.86L53.88 46.67L53.71 47.48L53.87 47.51V48.23L53.93 48.9L54.05 49.55L54.33 50.16L54.71 50.69L55.2 51.13L55.76 51.47L56.38 51.59L56.91 51.23L57.24 50.68Z" fill="#FF6C33"/>
<path d="M78.27 45.66L78.13 45L77.75 44.45L77.19 44.08L76.54 43.9L75.9 44.28L75.3 44.74L74.92 45.38L74.79 46.12L74.82 46.87L74.98 47.61L74.33 48.15L74.57 48.9L74.72 49.64L75.03 50.34L75.53 50.91L76.09 51.42L76.84 51.64L77.58 51.33L78.13 50.76L78.4 50.02L78.53 49.23L78.58 48.44V47.74L78.53 47.04L78.42 46.34L78.27 45.66Z" fill="#FF6C33"/>
<path d="M75.72 24.49L76.1 23.84L76.29 23.1L76.73 22.47L76.87 21.71L77.28 21.07L77.61 20.39L77.81 19.67L78 19L78.28 18.34L78.75 17.76L78.9 17.05L79.23 16.42L79.37 15.7L79.85 15.13L80.2 14.5V13.74L80.52 13.1L80.64 12.38L81.14 11.73L81.28 10.95L81.66 10.26L82.24 9.75L82.75 9.21L83.4 9.48L83.76 10.09L83.9 10.8L84.07 11.52L84.26 12.18L84.46 12.84L84.58 13.52L84.74 14.19L84.97 14.85L85.11 15.52L85.28 16.2L85.17 16.91L85.59 17.55L85.66 18.23V18.92L85.72 19.61L85.65 20.31L85.85 20.98L85.78 21.69L86.03 22.35V23.74L86.28 24.46L86.18 25.21L86.28 25.95V26.69L86.47 27.42V28.11L86.41 28.81V29.5L86.19 30.88V31.57L86.34 32.26L85.93 32.76L85.32 32.92L84.67 32.61L83.93 32.49L83.21 32.26L82.58 31.86L82.14 31.21L81.39 30.97L80.97 30.33L80.38 29.88L79.71 29.54L79.32 29L78.72 28.65L78.1 28.43H77.41L76.81 27.93L76.08 27.76L75.5 27.28L75.27 26.56L75.13 25.82L75.39 25.12L75.72 24.49ZM48.79 32.56L48.21 33.04L47.53 33.49H46.81L46.17 33.21L45.86 32.59L45.66 31.95L45.51 31.22L45.4 30.48V29.74L45.57 28.99L45.4 28.26V27.52L45.23 26.78L45.43 26.03L45.5 25.29L45.23 24.55L45.32 23.84L45.19 23.12L45.46 22.4L45.32 21.68V20.96L45.48 20.25L45.4 19.53V18.8L45.52 18.09L45.64 17.42L45.73 16.74L45.84 16.06L45.94 15.38L46.13 14.72L46.27 14.04L46.34 13.35L46.47 12.68L46.59 11.91L46.97 11.21L46.85 10.39L47.07 9.65L47.31 8.91L47.73 8.42L48.33 9.12L48.87 9.58L49.16 10.24L49.67 10.75L49.93 11.41L50.15 12.08L50.57 12.66L50.66 13.38L51 14.09L51.28 14.82L51.72 15.48L51.99 16.23L52.12 16.91L52.34 17.56L52.49 18.25L52.67 18.93L52.96 19.56L53.39 20.13L53.85 20.68L53.94 21.4L54.14 22.07L54.57 22.64L54.95 23.23L55.19 23.88V24.67L55.76 25.2L56 26L56.37 26.61L56.31 27.21L56.04 27.79L55.37 28.16L54.66 28.35L54.06 28.77L53.28 28.85L52.76 29.41L52.2 29.87L51.56 30.22L51.04 30.73L50.41 31.1L49.91 31.63L49.48 32.23L48.79 32.56ZM53.94 48.23L54 47.48H53.71L53.96 46.68L53.9 45.83L54.31 45.09L54.75 44.57L55.27 44.1L55.97 43.9L56.68 44.13L57.05 44.75L57.49 45.28L57.69 45.97L58.04 46.61L57.96 47.36L57.89 48.05L58.03 48.79L57.68 49.42L57.58 50.09L57.12 50.63L56.91 51.23L56.37 51.55L55.81 51.33L55.22 51.11L54.71 50.69L54.38 50.12L54.17 49.51L54 48.88L53.94 48.23ZM68.63 67.57L67.96 67.72L67.32 68.01H66.63L65.94 68.23L65.25 68L64.59 67.83L63.9 67.67L63.25 67.39L62.73 67L62.46 66.37L61.92 65.93L62.34 65.32L62.75 64.67L63.43 64.96L63.89 65.5L64.67 65.77L65.35 66.09L66.11 66.01L66.91 66.17L67.61 65.8L68.3 65.47L68.92 65.2L69.33 65.55L69.6 66.14L69.5 66.77L69.14 67.26L68.63 67.57ZM71.41 63.4L70.73 63.29H70.03L69.41 63L68.7 62.9L68.17 62.43L67.65 62L67.1 61.57L66.62 61L66.17 60.32L66.08 60.1L65.56 60.79L64.93 61.32L64.42 61.99L63.72 62.27L63.09 62.57L62.56 63.1L61.85 63.24L61.18 63.52L60.44 63.34L59.73 63.5L59.03 63.4L58.4 63.06L57.73 62.84L57.14 62.43L56.71 61.86L56.38 61.24L56.14 60.59L56.05 59.9L56.1 59.21L56.73 58.72L57.28 58.19L57.74 58.64L58.2 59.2L58.55 59.73L58.64 60.4L59.23 60.6L59.92 60.69H60.62L61.32 60.59L62.05 60.54L62.6 60.07L63.18 59.65L63.45 58.98L63.87 58.4L64.22 57.78V57.1L63.55 56.64L62.74 56.41L62.09 56.14L61.4 55.86L60.89 55.33L60.59 54.65L60.42 54L60.54 53.35L60.88 52.83L61.31 52.4L61.83 51.86L62.4 51.34L63.18 51.24L63.91 51.1L64.58 50.78L65.31 50.56H66.07L66.79 50.9L67.49 50.73L68.09 51.09L68.74 51.22H69.43L70.06 51.47L70.74 51.68L71.2 52.22L71.68 52.75L71.6 53.48L71.87 54.13L71.81 54.94L71.34 55.59L70.8 56.18L70.07 56.48L69.33 56.87L68.6 57.31L67.72 57.46L68.02 58.13L68.37 58.71L68.82 59.23L69.35 59.68L69.6 60.33L70.06 60.85L70.74 60.98L71.4 61.15L72.06 60.94L72.88 60.84L73.27 60.13L73.61 59.39L74.01 58.58H74.85L75.34 58.8L75.56 59.26L75.62 59.82V60.52L75.48 61.21L75.18 61.85L74.86 62.53L74.11 62.76L73.5 63.1L72.85 63.38L72.14 63.59L71.41 63.4ZM77.53 51.27L76.83 51.53L76.09 51.43L75.6 50.84L75 50.39L74.76 49.64L74.65 48.89L74.3 48.13L74.9 47.56L74.78 46.88L74.94 46.11V45.37L75.39 44.76L75.88 44.17L76.62 43.99L77.18 44.25L77.87 44.39L78.17 45.01L78.47 45.64L78.31 46.38L78.58 47.05L78.64 47.74L78.48 48.42V49.23L78.41 50.02L78.08 50.72L77.53 51.27Z" fill="#FF6C33"/>
<path d="M53.68 71.82L53.76 71.17L53.77 70.49L53.72 69.8L53.52 69.15L53.05 68.61L52.71 68.02L52.63 67.33L52.32 66.64L52 65.95L51.67 65.26L50.94 64.89L50.44 64.35L50.04 63.67L49.48 63.15L48.68 62.99L48.01 62.68L47.34 62.26L46.65 61.92L45.82 61.95L45.14 61.59L44.49 61.17L43.78 60.9L43.04 60.68L42.41 60.37L41.8 60L41.15 59.74L40.57 59.33L39.9 59.12L39.23 58.88L38.56 58.67L37.95 58.28L37.33 57.91L36.6 57.78L35.77 57.45L36.62 57.06L37.16 56.52L37.86 56.21L38.47 55.78L38.85 55.15L39.23 54.59L38.85 53.99L38.46 53.43L37.81 53.26L37.15 53.01L36.38 53.24L35.76 52.81L35.03 52.89L34.4 52.52L33.74 52.26L32.83 52.22L33.52 51.39L34.26 51.2L34.85 50.77L35.39 50.27L35.92 49.76L36.45 49.27L37.19 48.99L37.49 48.26L38.19 47.91L38.58 47.28L39.07 46.74L39.36 46.02L39.88 45.51L40.45 45.08L40.97 44.6L41.18 43.89L41.58 43.33L41.97 42.75L42.05 41.95L42.43 41.28L42.88 40.66L43.52 40.16L43.67 39.39L43.96 38.7L44.07 37.97L44.48 37.24L44.25 36.48L44.27 35.55L43.78 34.77L44.16 34.34L44.21 33.64L43.99 32.97L44.04 32.28L43.89 31.6L43.63 30.95L43.78 30.2L43.73 29.46L43.6 28.74L43.69 27.99L43.44 27.28L43.6 26.53L43.3 25.82L43.15 25.13L43.45 24.44L43.27 23.76L43.36 23.07L43.22 22.39L43.45 21.7L43.39 21.02L43.37 20.31L43.49 19.61L43.12 18.89L43.4 18.19L43.5 17.49V16.07L43.81 15.4L43.82 14.68L44.1 14.02L43.97 13.26L44.21 12.59L44.67 11.98L44.58 11.22L44.97 10.52L44.99 9.7L45.53 9.04L45.67 8.26L45.88 7.4L45.99 6.66L46.5 6.09L46.82 5.45L46.74 4.64L47.12 3.88L47.64 4.61L48.1 5.25L48.76 5.71L49 6.5L49.53 7.06L49.94 7.64L50.38 8.21L50.63 8.88L51.03 9.46L51.51 10L51.79 10.65L52 11.34L52.26 12.01L52.79 12.52L53.16 13.13L53.35 13.82L53.78 14.39L53.94 15.11L54.38 15.67L54.79 16.26L54.97 16.98L55.09 17.71L55.35 18.39L55.78 18.99L56.24 19.58L56.25 20.36L56.49 21.04L56.78 21.71L57.19 22.32L57.46 23L57.67 23.69L57.82 24.41L57.98 25.12L58.34 25.76L58.74 26.38L59.06 27.22L59.95 27.23L60.59 27.17L61.2 27.54L61.87 27.45L62.5 26.96L63.29 26.9L63.95 26.55L64.64 26.15L65.43 26.07L66.12 26.52L66.86 26.55L67.53 26.13L68.32 26.04L68.86 26.63L69.57 26.67L70.29 26.69L71.03 26.67L71.79 26.81L72.63 26.68L72.79 25.83L73.08 25.14L73.31 24.42L73.58 23.74L73.64 22.96L73.94 22.29L74.2 21.6L74.5 20.92L75.01 20.33L75.2 19.61L75.46 18.97L75.84 18.38L75.85 17.63L76.11 16.99L76.67 16.48L76.71 15.74L77.27 15.23L77.23 14.45L77.52 13.82L77.84 13.21L78.17 12.6L78.68 12.07L79.01 11.47L79.1 10.67L79.46 10.02L79.97 9.45L80.24 8.74L80.78 8.2L81.23 7.6L81.55 6.91L81.99 6.3L82.52 5.78L82.96 5.17L83.5 4.65L84 4.18L84.41 4.85L84.72 5.48L84.73 6.23L84.85 6.92L85.39 7.45L85.54 8.18L85.73 8.89L86.22 9.51L86.33 10.24L86.25 11.04L86.49 11.73L86.82 12.4L87.17 13.07L87.37 13.78L87.23 14.56L87.33 15.29L87.53 16L88 16.66L88.07 17.39L88.01 18.15L87.98 18.89L88.28 19.59L88.19 20.34L88.63 21.04L88.46 21.79L88.67 22.49L88.64 23.2L88.69 23.9V24.61L88.59 25.31L88.35 26L88.56 26.72L88.45 27.42L88.46 28.12L88.12 28.81L88.33 29.52L88.4 30.23L88.46 31.02L88.42 31.81L88.07 32.61L88.45 33.34L88.78 33.49L87.88 34.15L88.45 34.85L88 35.53L87.7 36.22L87.73 36.99L87.46 37.71L87.94 38.3L88.06 39.01L88.17 39.74L88.49 40.38L88.89 40.97L89.27 41.57L89.59 42.21L90.2 42.63L90.56 43.26L91.16 43.73L91.61 44.34L92.14 44.87L92.75 45.31L93.19 45.89L93.64 46.46L94.1 47.04L94.58 47.59L95.3 47.87L95.8 48.41L96.42 48.8L96.96 49.28L97.53 49.73L98.07 50.16L98.62 50.56L99.2 50.94L99.77 51.2L99.19 51.48L98.55 51.77L97.83 51.83L97.21 52.22L96.45 52.12L95.84 52.52L95.17 52.73L94.61 53.15L93.83 53.41L94.06 54.22L93.89 54.9L94.22 55.64L95.04 55.86L95.67 56.44L96.35 56.58L95.83 56.92L95.32 57.48L94.6 57.68L94.03 58.13L93.37 58.41L92.86 58.97L92.1 59.07L91.51 59.47L90.95 60L90.3 60.32L89.61 60.56L88.86 60.59L88.13 60.57L87.63 61.15L86.96 61.34L86.36 61.72L85.64 61.76L84.93 61.96L84.22 62.14L83.48 62.31L82.91 62.81L82.36 63.31L81.9 63.9L81.31 64.36L80.79 64.9L80.43 65.57L80.04 66.16L79.47 66.63L79.44 67.42L78.91 67.95L78.76 68.65L78.63 69.35L78.34 70L78.07 70.67L78.24 71.41L78.15 72.1L78.1 72.8L77.95 73.17L78.75 73.22L79.54 72.94L80.33 72.97L81.17 73.32L81.1 72.64L80.79 71.97L81.01 71.27L81.27 70.62L81.66 70.04L81.77 69.32L82.08 68.69L82.45 68.12L82.75 67.49L83.16 66.94L83.69 66.48L84.05 65.87L84.8 65.56L85.52 65.31L86.04 64.63L86.79 64.44L87.48 64.13L88.26 64.05L88.94 63.74L89.56 63.31L90.4 63.41L90.92 62.74L91.65 62.56L92.3 62.21L93.05 62.05L93.76 61.83L94.28 61.2L95.12 61.23L95.69 60.71L96.38 60.43L96.89 59.91L97.43 59.48L98.21 59.32L98.66 58.75L99.29 58.4L99.39 57.69L99.9 57.28L99.96 56.71L99.66 56.18L99.6 55.42L99.24 54.81L99.95 54.65L100.68 54.6L101.37 54.32L102.23 54.36L102.76 53.66L103.33 53.1L103.64 52.46L103.73 51.74L103.71 50.99L103.02 50.57L102.59 50.11L102.12 49.55L101.45 49.25L101.05 48.6L100.39 48.26L99.89 47.69L99.06 47.59L98.69 46.87L98.11 46.45L97.46 46.05L96.83 45.63L96.39 45.02L95.76 44.59L95.33 43.97L94.88 43.37L94.28 42.92L93.83 42.31L93.44 41.66L92.66 41.38L92.08 40.51L91.84 39.81L91.67 39.08L91.36 38.41L91.24 37.69L91.08 36.98L91 36.24L91.22 35.52L90.92 34.77L91.3 34.05L91.39 33.32L91.13 32.58L91.27 31.85L91 31.11L91.33 30.38L91.28 29.65L91.26 28.91L91.2 28.18L91.03 27.45L90.99 26.72L91.27 25.98L91 25.25L91.42 23.79L91.32 23.06L91.4 22.33L91.05 21.62L91.31 20.88L91.16 20.16L91.05 19.44L91.12 18.7L91.03 17.98L90.86 17.27L90.63 16.57L90.52 15.85L90.19 15.18L90.24 14.43L90.15 13.71L90.08 12.98L89.92 12.27L89.47 11.64L89.3 10.93L89.4 10.15L89.11 9.48L88.67 8.85L88.56 8.13L88.52 7.43L88.24 6.82L87.65 6.33L87.73 5.58L87.53 4.94L87.08 4.41L86.75 3.78L86.79 3.12L86.64 2.49L86.5 1.81L85.97 1.35L85.59 0.79L85.04 0.37L84.41 0.3L83.63 0L82.97 0.48L82.43 0.89L81.7 1.13L81.44 1.82L80.85 2.25L80.63 2.94L80.3 3.55L79.98 4.17L79.43 4.64L79.03 5.25L78.65 5.86L78.19 6.42L77.71 6.98L77.4 7.68L77.25 8.46L76.66 9L76.62 9.8L76.24 10.42L75.75 10.98L75.35 11.59L75.14 12.3L74.71 12.9L74.63 13.66L74.44 14.37L73.86 14.91L73.75 15.64L73.42 16.29L73.31 17.02L73 17.68L72.85 18.4L72.49 19.04L72 19.62L71.99 20.39L71.74 21.07L71.14 21.61L70.99 22.33L70.8 23.03L69.31 22.97L68.62 23.36L67.88 23.26L67.18 23.6L66.43 23.45L65.71 23.6L65 23.78L64.27 23.82L63.54 23.83L62.83 24.04L62.09 23.91L61.31 24.11L61.26 23.29L60.64 22.81L60.58 22.09L60.13 21.53L59.82 20.91L59.8 20.16L59.31 19.62L59.23 18.9L58.89 18.29L58.46 17.73L58.1 17.12L57.82 16.48L57.87 15.71L57.74 15.41L57.37 14.53L57.14 13.86L56.6 13.37L56.41 12.68L56.03 12.09L55.5 11.59L55.35 10.88L54.83 10.37L54.03 9.23L53.99 8.45L53.57 7.88L53.28 7.25L52.81 6.65L52.45 5.98L52.03 5.35L51.46 4.83L51.02 4.21L50.48 3.68L50.12 3L49.52 2.51L49.24 1.77L48.65 1.27L48.13 0.76L47.53 0.17L46.75 0.51L46 0.57L45.52 1.15L45.02 1.78L44.42 2.37L43.97 3.08L44.04 3.88L43.56 4.49L43.41 5.2L43.44 5.96L43.12 6.62L42.69 7.22L42.43 7.88L42.55 8.64L42.09 9.24L42.07 9.95L41.98 10.64L41.61 11.27L41.54 11.96L41.23 12.6L41.15 13.29L41.22 14.02L41.11 14.78L40.86 15.51L40.64 16.25L40.57 17.02L40.62 17.76L40.59 18.49L40.65 19.23L40.62 19.96L40.36 20.69L40.24 21.42L40.59 22.17L40.43 22.9L40.53 23.64L40.19 24.37L40.31 25.1L40.59 25.83L40.2 26.59L40.46 27.25L40.57 27.93V28.61L40.56 29.3L40.67 29.97L40.92 30.63L41.09 31.31L40.68 31.99L41.03 32.69L40.96 33.41L41.03 34.15L40.86 34.89L40.97 35.63L41.01 36.37L40.6 37.09L40.68 37.83L40.52 38.54L40.6 39.27L40.02 39.78L39.97 40.5L39.44 40.98L39.36 41.73L38.97 42.29L38.28 42.63L37.94 43.21L37.43 43.67L37.15 44.31L36.63 44.75L36.15 45.23L35.75 45.78L35.36 46.36L34.69 46.64L34.3 47.24L33.89 47.83L33.2 48.08L32.59 48.41L32.25 49.09L31.71 49.52L30.97 49.69L30.56 50.29L29.95 50.62L29.32 51.09L29 51.82L29.04 52.6L28.7 53.31L28.84 54.07L28.97 54.91L29.7 55.09L30.37 55.17L31.04 55.24L31.71 55.33L32.4 55.25L33 55.53L32.73 56.18L32.28 56.77L32.07 57.47L31.84 58.16L32.28 58.6L32.8 58.97L33.44 59.15L33.85 59.66L34.46 59.91L34.93 60.31L35.44 60.67L35.93 61.09L36.59 60.94L37.25 61.31L38.02 61.42L38.7 61.77L39.35 62.18L40.1 62.34L40.82 62.6L41.41 63.15L42.22 63.19L42.76 63.81L43.48 64.01L44.22 64.17L44.93 64.42L45.63 64.68L46.15 65.29L46.78 65.66L47.35 66.13L47.98 66.51L48.53 67.01L49.11 67.41L49.28 68.15L49.93 68.52L50.11 69.21L50.39 69.83L50.58 70.47L50.79 71.11L50.9 71.77L51 72.44V73.19L51.71 72.94H52.4L53.08 73.02L53.81 73.23L53.68 71.82Z" fill="#FF6C33"/>
</svg>
