<svg width="454" height="456" viewBox="0 0 454 456" fill="none" xmlns="http://www.w3.org/2000/svg">
<g clip-path="url(#clip0_2001_30)">
<path d="M311.12 31.1558C310.281 31.0587 309.602 31.192 309.083 31.5549C308.565 31.9182 308.186 32.5345 307.949 33.4041L313.362 34.0299C313.423 33.2079 313.263 32.5459 312.879 32.0444C312.495 31.5432 311.909 31.247 311.12 31.1558Z" fill="#FF6C33"/>
<path d="M265.258 25.9804C264.335 25.8737 263.607 26.1027 263.073 26.6671C262.539 27.2316 262.202 28.115 262.062 29.3172L262.032 29.5678C261.89 30.7869 262.014 31.7279 262.405 32.3908C262.795 33.0539 263.452 33.4385 264.375 33.5452C265.315 33.6538 266.051 33.4305 266.584 32.874C267.116 32.3179 267.454 31.4303 267.597 30.2111L267.626 29.9606C267.766 28.7583 267.642 27.8216 267.252 27.1502C266.863 26.4793 266.198 26.089 265.258 25.9804Z" fill="#FF6C33"/>
<path d="M264.218 69.0745C263.726 68.6777 263.086 68.5279 262.298 68.6251C261.459 68.7284 260.831 69.0178 260.414 69.4925C259.996 69.9677 259.775 70.6556 259.752 71.5563L265.16 70.8895C265.024 70.0765 264.71 69.4712 264.218 69.0745Z" fill="#FF6C33"/>
<path d="M181.436 79.2799C180.944 78.883 180.304 78.7333 179.516 78.8304C178.677 78.9339 178.049 79.2233 177.632 79.698C177.214 80.1732 176.993 80.8611 176.969 81.7616L182.378 81.0949C182.242 80.282 181.928 79.6766 181.436 79.2799Z" fill="#FF6C33"/>
<path d="M144.177 55.8755C144.029 54.6741 143.69 53.7924 143.161 53.2304C142.632 52.6685 141.906 52.4435 140.984 52.5561C140.044 52.671 139.387 53.065 139.01 53.7377C138.634 54.4103 138.52 55.3474 138.668 56.5488L138.699 56.7992C138.847 58.0005 139.186 58.8824 139.714 59.4443C140.244 60.0063 140.977 60.23 141.917 60.1151C142.839 60.0025 143.489 59.6141 143.867 58.9495C144.245 58.2852 144.359 57.344 144.208 56.126L144.177 55.8755Z" fill="#FF6C33"/>
<path d="M157.272 85.4096C157.123 84.2084 156.792 83.3345 156.281 82.7874C155.77 82.2407 155.037 82.026 154.081 82.144C153.159 82.2577 152.509 82.6427 152.131 83.2991C151.753 83.9557 151.639 84.8845 151.788 86.0857L151.823 86.361C151.972 87.5624 152.311 88.4352 152.839 88.9801C153.366 89.5249 154.091 89.7406 155.013 89.6269C155.969 89.509 156.628 89.1229 156.989 88.4684C157.35 87.814 157.456 86.8864 157.306 85.6849L157.272 85.4096Z" fill="#FF6C33"/>
<path d="M226.816 77.8019L223.872 78.5711C223.378 78.7003 223.02 78.901 222.798 79.1737C222.577 79.4469 222.491 79.7833 222.541 80.1839C222.595 80.618 222.792 80.9406 223.134 81.1527C223.475 81.3647 223.931 81.4354 224.501 81.3651C224.988 81.3051 225.429 81.1535 225.824 80.9099C226.219 80.6667 226.517 80.3587 226.718 79.9865C226.918 79.6148 226.991 79.2119 226.938 78.778L226.816 77.8019Z" fill="#FF6C33"/>
<path d="M353.772 12.9514L243.263 0.175368C228.997 -1.47392 216.089 8.69497 214.431 22.8882C213.13 34.0291 219.148 44.3368 228.696 49.0532L202.594 52.271C202.628 50.994 202.569 49.6987 202.407 48.3925C200.656 34.2103 187.681 24.1257 173.427 25.8678L98.0772 35.0765C83.8225 36.8186 73.6864 49.7278 75.4375 63.9099C77.1884 78.0921 90.1635 88.1768 104.418 86.4347L129.25 83.3998C129.213 84.7029 129.273 86.0254 129.439 87.3591C131.205 101.539 144.191 111.61 158.444 109.853L182.439 106.895C183.42 110.213 183.63 116.305 176.389 123.477C166.382 133.387 195.031 119.639 206.26 103.959L265.923 96.6039C280.176 94.8469 290.298 81.9271 288.532 67.7468C288.042 63.8115 286.687 60.1935 284.681 57.0561L295.086 58.2591C304.566 75.0398 337.379 91.1094 326.774 80.6063C316.118 70.0537 321.596 61.8353 321.926 61.3621L347.769 64.3497C362.034 65.999 374.943 55.8301 376.6 41.6369C378.258 27.4437 368.037 14.6007 353.772 12.9514ZM117.835 46.8738C118.032 46.6805 118.307 46.5622 118.66 46.519C118.945 46.4842 119.185 46.5056 119.382 46.5831C119.579 46.6606 119.794 46.8125 120.026 47.0381L121.397 48.4203L122.391 46.749C122.561 46.4743 122.732 46.2754 122.904 46.1527C123.076 46.0301 123.305 45.9514 123.59 45.9165C123.959 45.8715 124.259 45.9196 124.489 46.0606C124.719 46.2021 124.854 46.4312 124.893 46.7481C124.928 47.0321 124.874 47.3518 124.731 47.7079L124.266 48.9081C124.047 49.4772 123.737 49.9 123.338 50.1776C122.938 50.4552 122.385 50.637 121.681 50.7231C120.977 50.8091 120.397 50.7657 119.941 50.5927C119.486 50.4196 119.082 50.0838 118.731 49.5844L117.988 48.5318C117.761 48.2041 117.631 47.9067 117.597 47.6398C117.558 47.3228 117.638 47.0675 117.835 46.8738ZM106.419 65.7873C105.411 67.0709 103.842 67.8428 101.712 68.103C100.555 68.2445 99.5045 68.1822 98.5611 67.9165C97.6173 67.6505 96.8278 67.218 96.1915 66.618C95.5559 66.0186 95.0992 65.2868 94.8227 64.4226C94.5912 63.7902 94.507 63.2458 94.5698 62.7893C94.6323 62.333 94.806 61.9814 95.0908 61.7347C95.3752 61.4883 95.7355 61.3383 96.1717 61.2849C96.6914 61.2215 97.0979 61.3075 97.3912 61.5424C97.6837 61.7779 97.9463 62.1441 98.1777 62.6405C98.5175 63.4629 98.9215 64.0106 99.3893 64.2836C99.857 64.5568 100.444 64.6503 101.148 64.5642C102.02 64.4576 102.63 64.1588 102.978 63.6673C103.326 63.1762 103.448 62.5131 103.345 61.6787L102.103 51.6167C102.025 50.9826 102.154 50.4504 102.493 50.0193C102.831 49.5885 103.319 49.334 103.957 49.2561C104.611 49.1762 105.154 49.3046 105.587 49.6411C106.02 49.9779 106.276 50.463 106.354 51.0971L107.563 60.8839C107.808 62.8697 107.427 64.5043 106.419 65.7873ZM108.869 49.7482C108.789 49.0973 108.931 48.5592 109.295 48.1334C109.66 47.7077 110.16 47.4562 110.798 47.3783C111.469 47.2963 112.029 47.4183 112.478 47.7444C112.927 48.0708 113.192 48.568 113.275 49.2353C113.353 49.8696 113.215 50.4028 112.859 50.8357C112.504 51.2689 111.991 51.5264 111.32 51.6084C110.666 51.6883 110.115 51.5609 109.664 51.2262C109.215 50.8917 108.949 50.3989 108.869 49.7482ZM114.597 65.8423C114.265 66.2553 113.806 66.498 113.219 66.5697C112.598 66.6456 112.08 66.5222 111.666 66.2005C111.252 65.8788 111.008 65.4173 110.934 64.8164L109.781 55.4805C109.707 54.8797 109.831 54.3732 110.155 53.9611C110.479 53.5493 110.951 53.3049 111.572 53.229C112.159 53.1573 112.664 53.2823 113.086 53.6029C113.509 53.9238 113.757 54.3847 113.832 54.9855L114.984 64.3214C115.058 64.9223 114.929 65.4294 114.597 65.8423ZM128.45 64.0731C128.208 64.3909 127.844 64.5791 127.358 64.6385L119.156 65.6408C118.502 65.7208 117.999 65.6426 117.646 65.4062C117.293 65.1697 117.084 64.785 117.018 64.2506C116.981 63.9504 117.001 63.6643 117.078 63.3922C117.155 63.1205 117.311 62.8344 117.547 62.5346L122.363 55.2131L118.011 55.745C117.558 55.8003 117.171 55.7038 116.851 55.4547C116.531 55.206 116.343 54.8562 116.288 54.4056C116.23 53.9388 116.327 53.5498 116.578 53.2396C116.829 52.9293 117.181 52.7465 117.634 52.6912L125.206 51.7657C126.481 51.61 127.186 52.0829 127.322 53.1842C127.357 53.4682 127.331 53.7419 127.245 54.0066C127.159 54.2712 127.015 54.5599 126.816 54.8722L122.094 62.1315L126.974 61.535C127.461 61.4756 127.86 61.5707 128.172 61.8205C128.483 62.0707 128.668 62.4291 128.726 62.8959C128.783 63.3634 128.691 63.756 128.45 64.0731ZM172.756 46.2849C173.091 45.8885 173.551 45.6544 174.138 45.5827C174.641 45.5211 175.042 45.5991 175.342 45.8166C175.641 46.0343 175.921 46.3727 176.182 46.8318L179.836 53.677L181.644 46.1895C181.767 45.6665 181.951 45.2631 182.197 44.9788C182.443 44.6946 182.817 44.5219 183.321 44.4605C183.89 44.3908 184.373 44.5013 184.766 44.7917C185.16 45.0828 185.385 45.4619 185.443 45.9289C185.484 46.2628 185.451 46.6136 185.343 46.9827L181.508 61.2222C181.263 62.1325 180.704 62.6416 179.832 62.7481C179.262 62.8179 178.774 62.7207 178.367 62.4571C177.959 62.1931 177.721 61.7776 177.651 61.2107C177.632 61.0604 177.635 60.9078 177.658 60.7523C177.681 60.5972 177.701 60.4505 177.719 60.3131L178.258 58.2654L172.673 48.6074C172.495 48.2733 172.386 47.9396 172.345 47.6057C172.285 47.1218 172.422 46.6816 172.756 46.2849ZM160.252 47.9022C160.502 47.5919 160.854 47.4091 161.307 47.3538L168.88 46.4284C170.154 46.2726 170.86 46.7454 170.996 47.8467C171.031 48.1307 171.005 48.4045 170.918 48.6693C170.832 48.9338 170.689 49.2225 170.489 49.5348L165.767 56.7941L170.648 56.1976C171.134 56.1382 171.533 56.2333 171.845 56.483C172.157 56.7332 172.341 57.0917 172.399 57.5585C172.457 58.026 172.365 58.4185 172.123 58.7356C171.881 59.0535 171.517 59.2417 171.031 59.3011L162.83 60.3035C162.175 60.3834 161.672 60.3052 161.319 60.0688C160.967 59.8323 160.757 59.4476 160.692 58.9132C160.654 58.613 160.674 58.327 160.752 58.0547C160.829 57.7831 160.985 57.497 161.22 57.1971L166.037 49.8757L161.684 50.4076C161.231 50.4629 160.845 50.3664 160.525 50.1173C160.204 49.8686 160.017 49.5188 159.961 49.0682C159.904 48.6014 160 48.2124 160.252 47.9022ZM150.367 49.034C150.684 48.6313 151.135 48.3939 151.723 48.322C152.292 48.2524 152.779 48.3668 153.182 48.6645C153.585 48.9627 153.829 49.3858 153.914 49.9344L154.078 51.0577C154.212 50.0757 154.523 49.2882 155.012 48.6951C155.5 48.1018 156.105 47.761 156.826 47.6728C157.447 47.5971 157.929 47.7119 158.273 48.0168C158.618 48.3222 158.824 48.75 158.892 49.3006C158.98 50.0182 158.87 50.5442 158.563 50.8778C158.255 51.2122 157.734 51.4409 157 51.5643C156.065 51.7127 155.408 52.0469 155.03 52.5672C154.652 53.088 154.516 53.782 154.623 54.6495L155.21 59.4052C155.284 60.0061 155.156 60.5132 154.824 60.9263C154.492 61.3391 154.032 61.5819 153.445 61.6536C152.824 61.7295 152.307 61.6061 151.893 61.2845C151.478 60.9626 151.234 60.5011 151.16 59.9002L149.998 50.4893C149.928 49.9219 150.051 49.4371 150.367 49.034ZM146.335 61.773C145.551 62.4532 144.58 62.8641 143.423 63.0055C142.467 63.1223 141.611 62.9856 140.857 62.5948C140.102 62.2044 139.532 61.6858 139.145 61.0382L139.21 61.5639C139.261 62.1165 139.127 62.5776 138.806 62.9471C138.486 63.3166 138.049 63.5352 137.496 63.6028C136.925 63.6725 136.438 63.5543 136.034 63.2478C135.63 62.9415 135.394 62.5048 135.324 61.9372L133.451 46.7695C133.377 46.1687 133.501 45.6622 133.825 45.25C134.149 44.8382 134.621 44.5937 135.242 44.5179C135.845 44.4441 136.354 44.5687 136.769 44.8903C137.183 45.2123 137.427 45.6737 137.501 46.2744L138.203 51.956C138.51 51.2751 138.972 50.7061 139.588 50.2496C140.204 49.7932 140.973 49.5087 141.896 49.3959C143.036 49.2566 144.057 49.424 144.959 49.8983C145.86 50.3725 146.599 51.0867 147.177 52.0408C147.754 52.9952 148.121 54.1066 148.278 55.3743L148.309 55.6248C148.467 56.9097 148.374 58.0854 148.029 59.1523C147.684 60.2194 147.12 61.0926 146.335 61.773ZM160.98 88.7261C160.535 89.8061 159.833 90.6931 158.872 91.3872C157.911 92.0813 156.752 92.5126 155.393 92.6801C154.052 92.8455 152.826 92.7083 151.716 92.2694C150.605 91.8307 149.711 91.1405 149.031 90.199C148.353 89.258 147.933 88.1454 147.773 86.8602L147.739 86.5849C147.579 85.3006 147.713 84.1195 148.14 83.0415C148.568 81.9638 149.266 81.0774 150.235 80.3818C151.204 79.6868 152.359 79.2562 153.701 79.0908C155.059 78.9233 156.29 79.0598 157.392 79.4996C158.493 79.9398 159.392 80.6294 160.088 81.5686C160.784 82.508 161.212 83.6198 161.372 84.9041L161.406 85.1794C161.567 86.4646 161.424 87.6465 160.98 88.7261ZM172.502 89.8847C172.319 90.1276 172.009 90.335 171.571 90.5078C171.216 90.6698 170.721 90.7904 170.084 90.869C168.49 91.0655 167.26 90.8572 166.392 90.2442C165.524 89.6314 165.002 88.6242 164.828 87.2225L164.061 81.0662L162.954 81.2027C162.501 81.2584 162.129 81.1689 161.836 80.9337C161.542 80.6992 161.37 80.3732 161.318 79.9557C161.262 79.5055 161.352 79.1346 161.588 78.8425C161.824 78.5512 162.16 78.3783 162.596 78.3245L163.703 78.188L163.413 75.8607C163.34 75.2768 163.465 74.7786 163.788 74.3658C164.112 73.9536 164.575 73.71 165.179 73.6356C165.783 73.5612 166.296 73.6843 166.719 74.0045C167.142 74.3252 167.39 74.7775 167.463 75.3615L167.753 77.6887L169.765 77.4406C170.201 77.3869 170.565 77.4779 170.859 77.7124C171.152 77.9474 171.324 78.2734 171.376 78.6904C171.43 79.1245 171.344 79.4909 171.117 79.7895C170.89 80.0887 170.559 80.2651 170.123 80.3188L168.111 80.5669L168.844 86.4481C168.91 86.9821 169.07 87.3436 169.323 87.5323C169.577 87.7214 169.98 87.7817 170.534 87.7135C170.699 87.6765 170.874 87.6461 171.059 87.6233C171.536 87.4968 171.915 87.56 172.193 87.8136C172.472 88.0675 172.638 88.4113 172.692 88.8449C172.748 89.2953 172.685 89.6422 172.502 89.8847ZM186.525 86.3012C186.405 86.5699 186.211 86.8567 185.942 87.1605C185.454 87.7462 184.759 88.2555 183.859 88.6879C182.96 89.1205 182.04 89.395 181.102 89.5107C179.659 89.6886 178.371 89.5678 177.238 89.1485C176.104 88.729 175.194 88.0497 174.506 87.1092C173.819 86.1692 173.392 85.0319 173.226 83.697L173.195 83.4466C173.031 82.1288 173.166 80.9306 173.603 79.8516C174.039 78.773 174.738 77.8949 175.701 77.2171C176.664 76.5394 177.833 76.1158 179.208 75.9462C180.583 75.7768 181.784 75.9207 182.812 76.3786C183.839 76.8363 184.635 77.484 185.199 78.3205C185.763 79.1574 186.113 80.0585 186.251 81.0241C186.33 81.6582 186.231 82.1319 185.955 82.4452C185.679 82.759 185.214 82.956 184.56 83.0366L177.19 83.9452L177.196 83.9952C177.405 84.9859 177.803 85.6908 178.392 86.1093C178.981 86.5284 179.778 86.6753 180.784 86.5513C181.303 86.4872 181.781 86.3523 182.215 86.1463C182.649 85.9403 183.08 85.6419 183.508 85.2498C183.707 85.073 183.891 84.9065 184.059 84.75C184.243 84.592 184.42 84.4729 184.589 84.3925C184.758 84.3126 184.942 84.2599 185.144 84.2351C185.529 84.1875 185.864 84.2735 186.146 84.4927C186.429 84.7121 186.597 85.0305 186.648 85.4471C186.686 85.7475 186.645 86.0321 186.525 86.3012ZM199.507 76.315L197.124 85.2739C196.924 85.9933 196.611 86.5613 196.187 86.9778C195.762 87.3942 195.189 87.6469 194.468 87.7358C193.747 87.8247 193.134 87.7224 192.629 87.4287C192.124 87.1353 191.685 86.656 191.313 85.9902L186.795 78.0094C186.619 77.6924 186.509 77.3586 186.466 77.0081C186.401 76.4911 186.532 76.0387 186.859 75.6508C187.185 75.2638 187.65 75.0325 188.254 74.9581C188.773 74.894 189.193 74.9819 189.512 75.2221C189.832 75.4624 190.103 75.7973 190.327 76.227L194.042 83.494L195.855 75.4949C195.952 75.0427 196.122 74.6657 196.366 74.3646C196.609 74.0638 196.965 73.884 197.435 73.8261C198.022 73.7537 198.516 73.8625 198.918 74.1515C199.32 74.4411 199.552 74.8274 199.612 75.311C199.65 75.6114 199.614 75.946 199.507 76.315ZM252.64 17.7937C252.716 17.1424 252.981 16.6527 253.436 16.3245C253.891 15.9962 254.438 15.8691 255.076 15.9429C255.747 16.0204 256.262 16.2704 256.621 16.6926C256.98 17.1151 257.121 17.6605 257.043 18.3281C256.968 18.9631 256.708 19.4489 256.26 19.7862C255.812 20.1241 255.252 20.2539 254.581 20.1762C253.927 20.1006 253.42 19.8476 253.062 19.4166C252.705 18.9861 252.563 18.445 252.64 17.7937ZM234.416 16.5245C234.48 15.9735 234.731 15.5415 235.167 15.2278C235.603 14.9145 236.149 14.7955 236.803 14.8712C237.341 14.9332 237.756 15.1253 238.05 15.4468C238.345 15.7689 238.546 16.1896 238.655 16.7101L241.399 28.8325L246.816 17.6281C247.061 17.1321 247.354 16.7681 247.696 16.5367C248.038 16.3056 248.469 16.2199 248.989 16.28C249.627 16.3538 250.118 16.5882 250.464 16.9837C250.809 17.379 250.95 17.8439 250.888 18.3783C250.851 18.6957 250.753 19.0145 250.597 19.3347L243.995 31.9507C243.644 32.6208 243.204 33.112 242.675 33.4228C242.145 33.7337 241.494 33.8448 240.722 33.7555C239.967 33.6682 239.363 33.4119 238.911 32.9876C238.458 32.5633 238.147 31.9853 237.978 31.2549L234.475 17.5469C234.394 17.2162 234.375 16.8752 234.416 16.5245ZM222.863 67.1848L223.821 65.4405C223.959 65.1863 224.122 64.9883 224.309 64.8466C224.495 64.7053 224.739 64.6156 225.042 64.5784C225.511 64.5206 225.91 64.6155 226.239 64.8629C226.567 65.1105 226.758 65.4427 226.81 65.8595C226.87 66.3436 226.722 66.794 226.365 67.2105L225.09 68.6636C224.944 68.8512 224.799 68.9875 224.656 69.0727C224.514 69.1581 224.341 69.2132 224.14 69.2379C223.771 69.2836 223.446 69.2009 223.165 68.99C222.883 68.7793 222.72 68.4981 222.677 68.1478C222.639 67.8475 222.701 67.5266 222.863 67.1848ZM201.901 69.6927L202.156 68.6702C202.269 68.2158 202.469 67.8694 202.755 67.6307C203.04 67.3924 203.4 67.2463 203.836 67.1926C204.406 67.1223 204.878 67.2166 205.251 67.4756C205.623 67.7346 205.839 68.098 205.897 68.5646C205.949 68.982 205.853 69.4344 205.607 69.922L205.147 70.741C204.981 71.0497 204.789 71.285 204.571 71.4474C204.353 71.6102 204.042 71.7157 203.64 71.7653C203.137 71.8273 202.719 71.752 202.386 71.5388C202.053 71.3256 201.861 71.019 201.811 70.6185C201.78 70.3683 201.81 70.0596 201.901 69.6927ZM206.41 85.7045C206.079 86.1179 205.619 86.3611 205.033 86.4334C204.412 86.5099 203.894 86.3872 203.48 86.0658C203.065 85.7446 202.821 85.2833 202.746 84.6825L201.583 75.3477C201.508 74.747 201.632 74.2405 201.956 73.8281C202.279 73.4156 202.751 73.1708 203.371 73.0944C203.958 73.022 204.463 73.1464 204.886 73.4667C205.309 73.7871 205.558 74.2477 205.633 74.8484L206.795 84.1833C206.87 84.784 206.742 85.2913 206.41 85.7045ZM217.006 74.8058C216.698 75.1403 216.178 75.3697 215.444 75.4938C214.509 75.6434 213.853 75.9782 213.475 76.4989C213.097 77.0201 212.962 77.7142 213.07 78.5815L213.662 83.3367C213.737 83.9374 213.609 84.4447 213.277 84.8579C212.945 85.2713 212.486 85.5145 211.9 85.5868C211.279 85.6633 210.761 85.5406 210.347 85.2192C209.932 84.898 209.688 84.4367 209.613 83.836L208.441 74.4261C208.37 73.8589 208.492 73.3739 208.809 72.9704C209.124 72.5673 209.575 72.3295 210.163 72.2571C210.733 72.1868 211.219 72.3008 211.623 72.598C212.026 72.8958 212.27 73.3186 212.355 73.8673L212.521 74.9902C212.654 74.0082 212.965 73.2204 213.452 72.6267C213.94 72.0328 214.545 71.6916 215.266 71.6027C215.886 71.5262 216.369 71.6405 216.713 71.9449C217.058 72.25 217.264 72.6777 217.333 73.2283C217.422 73.9457 217.313 74.4718 217.006 74.8058ZM230.95 82.692C230.642 83.0941 230.186 83.3324 229.583 83.4068C229.063 83.4708 228.599 83.3712 228.192 83.1083C227.785 82.8451 227.524 82.4582 227.409 81.947L227.331 81.5246C227.034 82.2898 226.55 82.9129 225.878 83.3935C225.205 83.8742 224.383 84.175 223.411 84.2948C222.169 84.4479 221.11 84.2101 220.231 83.5815C219.352 82.9528 218.843 82.0715 218.701 80.9366C218.564 79.8355 218.791 78.9181 219.38 78.1848C219.97 77.4514 220.876 76.9333 222.098 76.6302L226.526 75.4744L226.411 74.5485C226.348 74.0481 226.146 73.6835 225.802 73.4547C225.458 73.226 224.96 73.1518 224.306 73.2323C223.853 73.2882 223.451 73.4141 223.101 73.6097C222.751 73.8051 222.395 74.0867 222.031 74.4529C221.618 74.8258 221.301 75.0854 221.081 75.2309C220.861 75.3768 220.591 75.4692 220.273 75.5084C219.921 75.5519 219.6 75.4731 219.311 75.2713C219.022 75.0698 218.852 74.7605 218.8 74.3433C218.74 73.8595 218.916 73.3634 219.329 72.8549C219.768 72.276 220.41 71.7561 221.255 71.2961C222.1 70.8361 223.06 70.5402 224.133 70.4079C225.29 70.2653 226.319 70.3205 227.218 70.5737C228.118 70.8272 228.848 71.2538 229.408 71.8538C229.968 72.454 230.303 73.188 230.411 74.0553L231.302 81.2128C231.375 81.797 231.257 82.2901 230.95 82.692ZM254.014 79.8358C253.691 80.2482 253.228 80.4919 252.624 80.5663C252.02 80.6407 251.511 80.517 251.097 80.1956C250.682 79.8744 250.437 79.413 250.362 78.8123L249.658 73.1564C249.546 72.2553 249.304 71.6117 248.932 71.2256C248.561 70.8396 248.056 70.6855 247.419 70.7641C246.681 70.8551 246.152 71.1872 245.832 71.7602C245.511 72.3335 245.416 73.1373 245.545 74.1716L246.187 79.3271C246.262 79.9278 246.141 80.434 245.827 80.8452C245.512 81.2566 245.044 81.5008 244.424 81.5771C243.837 81.6496 243.336 81.5248 242.922 81.2034C242.507 80.8822 242.262 80.4209 242.187 79.8202L241.486 74.1891C241.376 73.3051 241.138 72.6611 240.773 72.257C240.407 71.8533 239.898 71.6913 239.244 71.7719C238.54 71.8588 238.018 72.1817 237.679 72.7401C237.34 73.2987 237.236 74.1034 237.366 75.1544L238.012 80.335C238.086 80.9357 237.958 81.4429 237.627 81.8561C237.295 82.2696 236.835 82.5126 236.249 82.585C235.628 82.6616 235.11 82.5388 234.696 82.2173C234.281 81.8963 234.037 81.4349 233.962 80.8342L232.793 71.4492C232.72 70.8655 232.846 70.3716 233.17 69.967C233.494 69.563 233.95 69.3246 234.537 69.2521C235.09 69.1839 235.568 69.2904 235.969 69.571C236.37 69.8521 236.621 70.2659 236.723 70.8123L236.77 71.1877C237.042 70.4935 237.48 69.8849 238.088 69.3607C238.695 68.8374 239.46 68.5183 240.382 68.4046C241.371 68.2826 242.218 68.3775 242.921 68.6888C243.623 69.0004 244.192 69.5358 244.628 70.2951C244.987 69.4885 245.493 68.8333 246.145 68.3294C246.797 67.8257 247.585 67.5167 248.507 67.403C250.033 67.2149 251.212 67.5228 252.045 68.3261C252.876 69.13 253.392 70.3245 253.589 71.9093L254.387 78.3162C254.462 78.9169 254.337 79.4237 254.014 79.8358ZM254.394 34.7778C253.974 35.1012 253.469 35.2292 252.882 35.1614C252.261 35.0895 251.787 34.8484 251.461 34.4386C251.134 34.0288 251.007 33.5228 251.077 32.9217L252.168 23.5783C252.238 22.9772 252.479 22.5142 252.892 22.1895C253.304 21.8651 253.82 21.7383 254.442 21.8102C255.029 21.8782 255.49 22.1179 255.825 22.5286C256.16 22.9397 256.292 23.4458 256.222 24.047L255.13 33.3904C255.06 33.9915 254.815 34.4544 254.394 34.7778ZM269.307 76.0957C269.187 76.3645 268.993 76.6513 268.724 76.9551C268.235 77.5407 267.541 78.05 266.641 78.4825C265.742 78.915 264.822 79.1896 263.883 79.3054C262.441 79.4831 261.153 79.3624 260.02 78.943C258.886 78.5237 257.976 77.8443 257.289 76.9038C256.601 75.9638 256.174 74.8266 256.008 73.4916L255.977 73.2412C255.813 71.9235 255.948 70.7251 256.385 69.6462C256.82 68.5677 257.52 67.6894 258.483 67.0117C259.446 66.334 260.614 65.9103 261.99 65.7409C263.364 65.5714 264.566 65.7154 265.594 66.1732C266.621 66.631 267.417 67.2785 267.981 68.1152C268.545 68.9519 268.895 69.8531 269.033 70.8186C269.112 71.4527 269.013 71.9265 268.737 72.2398C268.461 72.5535 267.996 72.7506 267.342 72.8312L259.972 73.7399L259.978 73.7898C260.187 74.7804 260.585 75.4854 261.174 75.9039C261.762 76.323 262.56 76.4699 263.566 76.3459C264.085 76.2818 264.563 76.1468 264.997 75.9408C265.431 75.7348 265.862 75.4365 266.29 75.0444C266.489 74.8675 266.673 74.7011 266.841 74.5447C267.025 74.3866 267.202 74.2675 267.371 74.1872C267.54 74.1072 267.725 74.0545 267.926 74.0296C268.311 73.9822 268.646 74.068 268.928 74.2873C269.211 74.5066 269.378 74.8251 269.43 75.2418C269.468 75.5421 269.427 75.8266 269.307 76.0957ZM272.728 20.1415L270.955 35.3215C270.889 35.8895 270.663 36.3286 270.278 36.6395C269.893 36.9505 269.407 37.0718 268.819 37.004C268.265 36.9399 267.831 36.7248 267.516 36.3584C267.202 35.992 267.06 35.5313 267.091 34.9763L267.152 34.4503C266.77 35.1003 266.207 35.6231 265.464 36.0194C264.72 36.4158 263.853 36.5567 262.863 36.4423C261.721 36.3103 260.752 35.9064 259.955 35.2303C259.158 34.5541 258.592 33.6849 258.256 32.6221C257.921 31.5594 257.829 30.3854 257.979 29.0992L258.008 28.8487C258.156 27.5799 258.512 26.4658 259.075 25.5066C259.637 24.5478 260.372 23.8288 261.279 23.3495C262.185 22.8705 263.201 22.6959 264.326 22.8259C265.232 22.9308 265.999 23.2098 266.626 23.6632C267.253 24.1165 267.723 24.6829 268.036 25.3621L268.7 19.6758C268.77 19.0747 269.011 18.6119 269.423 18.2871C269.835 17.9625 270.344 17.835 270.948 17.9049C271.569 17.9766 272.038 18.2172 272.356 18.6262C272.674 19.0354 272.798 19.5404 272.728 20.1415ZM278.956 26.6755L277.865 36.0188C277.795 36.6199 277.549 37.0828 277.129 37.4063C276.708 37.7297 276.204 37.8578 275.617 37.7899C274.995 37.7181 274.522 37.4769 274.196 37.0672C273.869 36.6573 273.741 36.1514 273.812 35.5502L274.903 26.2069C274.973 25.6056 275.214 25.1428 275.626 24.818C276.038 24.4935 276.555 24.3669 277.176 24.4387C277.764 24.5066 278.225 24.7463 278.56 25.1572C278.894 25.5682 279.027 26.0743 278.956 26.6755ZM279.461 22.5704C279.227 22.8312 278.984 23.0145 278.733 23.1209C278.483 23.2275 278.156 23.2573 277.753 23.2106C277.25 23.1524 276.861 22.9805 276.589 22.6951C276.316 22.4097 276.203 22.0667 276.25 21.6659C276.279 21.4154 276.381 21.1225 276.556 20.7873L277.048 19.8542C277.267 19.4394 277.543 19.1496 277.877 18.9852C278.211 18.8206 278.596 18.7636 279.033 18.8141C279.603 18.88 280.039 19.0828 280.339 19.4222C280.64 19.7615 280.763 20.1653 280.708 20.6327C280.66 21.0503 280.458 21.4669 280.103 21.8827L279.461 22.5704ZM301.878 32.2959L301.129 38.7085C301.059 39.3096 300.817 39.7729 300.405 40.0974C299.993 40.4217 299.485 40.5493 298.881 40.4795C298.276 40.4096 297.811 40.1695 297.484 39.7597C297.158 39.3499 297.03 38.844 297.1 38.2428L297.762 32.5815C297.867 31.6798 297.785 30.9974 297.516 30.5349C297.246 30.0722 296.793 29.8041 296.155 29.7303C295.416 29.6449 294.824 29.8427 294.376 30.3242C293.928 30.8057 293.645 31.564 293.523 32.5994L292.921 37.7595C292.851 38.3607 292.613 38.8245 292.21 39.1499C291.806 39.4752 291.293 39.6023 290.673 39.5305C290.085 39.4626 289.628 39.2234 289.302 38.8137C288.975 38.4039 288.848 37.8979 288.918 37.2967L289.576 31.6607C289.679 30.7757 289.601 30.0939 289.343 29.6152C289.084 29.137 288.627 28.8599 287.973 28.7842C287.268 28.7027 286.684 28.8934 286.222 29.3561C285.759 29.8191 285.467 30.5762 285.344 31.6282L284.738 36.8135C284.668 37.4147 284.423 37.8775 284.002 38.2009C283.581 38.5243 283.077 38.6524 282.49 38.5845C281.869 38.5127 281.395 38.2716 281.069 37.8618C280.742 37.452 280.615 36.946 280.685 36.3449L281.782 26.9513C281.85 26.367 282.09 25.9168 282.501 25.6001C282.912 25.2839 283.412 25.1595 283.999 25.2275C284.553 25.2916 284.991 25.5072 285.314 25.8745C285.637 26.2419 285.783 26.703 285.752 27.2581L285.708 27.6337C286.137 27.0233 286.708 26.5351 287.423 26.1692C288.138 25.8036 288.957 25.6736 289.88 25.7804C290.87 25.8949 291.67 26.1865 292.278 26.6544C292.887 27.1226 293.312 27.7768 293.555 28.6172C294.096 27.9179 294.743 27.4005 295.497 27.0645C296.251 26.7288 297.089 26.6139 298.012 26.7206C299.539 26.8972 300.612 27.4742 301.23 28.4509C301.847 29.4278 302.063 30.7096 301.878 32.2959ZM317.142 34.8731C317.068 35.5078 316.86 35.9448 316.517 36.1844C316.174 36.4241 315.675 36.506 315.021 36.4304L307.644 35.5775L307.638 35.6277C307.605 36.6392 307.824 37.4179 308.297 37.9632C308.769 38.509 309.508 38.8395 310.516 38.9559C311.036 39.016 311.531 38.9972 312.002 38.8994C312.473 38.8015 312.963 38.6129 313.472 38.3331C313.707 38.2079 313.925 38.0895 314.126 37.977C314.343 37.8669 314.543 37.7928 314.726 37.7544C314.909 37.7166 315.101 37.709 315.303 37.7324C315.688 37.777 315.993 37.9391 316.216 38.2186C316.438 38.4982 316.525 38.8471 316.476 39.2643C316.441 39.5649 316.333 39.8317 316.153 40.0648C315.973 40.2977 315.716 40.5307 315.383 40.7626C314.768 41.2164 313.972 41.5476 312.996 41.7561C312.018 41.9644 311.06 42.0147 310.12 41.9059C308.676 41.7391 307.454 41.3186 306.453 40.6443C305.451 39.9697 304.728 39.0952 304.284 38.0197C303.839 36.9445 303.695 35.739 303.852 34.4028L303.881 34.1522C304.035 32.8332 304.452 31.701 305.132 30.7553C305.812 29.8102 306.701 29.1216 307.798 28.6897C308.894 28.2581 310.131 28.1217 311.507 28.2809C312.883 28.44 314.017 28.8629 314.906 29.5497C315.796 30.2366 316.415 31.053 316.763 31.9986C317.112 32.9445 317.238 33.9027 317.142 34.8731ZM334.971 34.0655C334.926 34.4498 334.759 34.748 334.471 34.9598C334.182 35.1719 333.845 35.2556 333.459 35.211C333.308 35.1935 333.167 35.1605 333.037 35.1113C332.906 35.0625 332.77 34.9959 332.626 34.9117C332.329 34.6911 332.042 34.4548 331.765 34.2027C331.397 33.8554 331.057 33.6004 330.744 33.4373C330.432 33.2741 330.049 33.1664 329.596 33.1141C329.042 33.05 328.593 33.1041 328.25 33.2757C327.906 33.4479 327.714 33.709 327.673 34.0597C327.642 34.3269 327.692 34.5569 327.822 34.7498C327.953 34.9425 328.209 35.1204 328.59 35.2826C328.97 35.4451 329.531 35.6287 330.273 35.8327C332.057 36.2927 333.302 36.8811 334.009 37.5975C334.717 38.314 335.004 39.2401 334.871 40.3755C334.772 41.2273 334.441 41.9506 333.878 42.5456C333.315 43.1406 332.563 43.5701 331.623 43.8335C330.682 44.0968 329.598 44.158 328.373 44.0163C327.316 43.8941 326.334 43.6321 325.428 43.2315C324.522 42.8308 323.825 42.3227 323.335 41.7075C323.113 41.4279 322.954 41.1517 322.858 40.878C322.762 40.6048 322.732 40.3176 322.767 40.017C322.812 39.6331 322.994 39.3157 323.312 39.0646C323.631 38.8137 323.983 38.7105 324.369 38.755C324.571 38.7783 324.75 38.8417 324.908 38.9444C325.066 39.0475 325.221 39.1836 325.371 39.3533L325.441 39.4121C325.735 39.8016 326.038 40.1246 326.348 40.3803C326.675 40.6382 327.022 40.8351 327.389 40.9703C327.756 41.106 328.183 41.2017 328.67 41.258C329.341 41.3356 329.87 41.2868 330.256 41.1114C330.643 40.9363 330.858 40.6566 330.903 40.2723C330.934 40.0053 330.897 39.7808 330.79 39.5991C330.684 39.4178 330.442 39.2287 330.065 39.033C329.688 38.8371 329.13 38.629 328.39 38.4076C326.625 37.9331 325.392 37.3463 324.692 36.6473C323.991 35.9484 323.707 35.0315 323.839 33.8957C323.937 33.0608 324.252 32.361 324.786 31.7963C325.32 31.2321 326.035 30.8282 326.931 30.5846C327.827 30.3415 328.829 30.2835 329.937 30.4116C330.91 30.5242 331.826 30.7995 332.685 31.2372C333.544 31.6753 334.17 32.1792 334.563 32.749C334.722 32.9876 334.836 33.2123 334.905 33.4233C334.974 33.6344 334.996 33.8487 334.971 34.0655ZM349.822 38.6515C349.748 39.2862 349.54 39.7231 349.197 39.9627C348.854 40.2023 348.356 40.2844 347.701 40.2087L340.324 39.3558L340.318 39.4059C340.285 40.4176 340.505 41.1963 340.977 41.7414C341.449 42.2872 342.189 42.6179 343.196 42.7343C343.716 42.7944 344.211 42.7756 344.682 42.6778C345.153 42.5798 345.643 42.3913 346.152 42.1115C346.387 41.9863 346.605 41.8679 346.806 41.7553C347.023 41.6453 347.223 41.5711 347.406 41.5328C347.589 41.495 347.781 41.4874 347.983 41.5107C348.369 41.5553 348.673 41.7174 348.896 41.9969C349.118 42.2766 349.205 42.6253 349.156 43.0426C349.121 43.3432 349.013 43.6101 348.833 43.8432C348.653 44.076 348.396 44.309 348.063 44.541C347.448 44.9948 346.652 45.326 345.676 45.5344C344.698 45.7428 343.74 45.7929 342.8 45.6843C341.356 45.5174 340.134 45.0968 339.133 44.4225C338.131 43.7481 337.408 42.8736 336.964 41.798C336.519 40.7228 336.376 39.5172 336.532 38.181L336.561 37.9305C336.715 36.6116 337.132 35.4792 337.812 34.5337C338.493 33.5886 339.381 32.8999 340.478 32.4681C341.574 32.0364 342.811 31.9001 344.187 32.0592C345.563 32.2184 346.697 32.6412 347.586 33.328C348.476 34.015 349.095 34.8314 349.444 35.7769C349.792 36.7229 349.919 37.6811 349.822 38.6515ZM357.353 45.1835C357.277 45.8348 357.018 46.334 356.578 46.6805C356.138 47.0272 355.581 47.1621 354.91 47.0844C354.256 47.0088 353.754 46.7516 353.405 46.3138C353.057 45.876 352.921 45.3312 352.997 44.6799C353.075 44.0122 353.333 43.5088 353.773 43.1702C354.212 42.8318 354.759 42.7004 355.414 42.776C356.085 42.8536 356.595 43.1073 356.945 43.537C357.294 43.9668 357.431 44.5158 357.353 45.1835ZM363.861 34.4608L363.841 34.6362C363.728 35.6049 363.355 36.4249 362.724 37.0966C362.093 37.7685 361.039 38.4503 359.563 39.1429C359.058 39.3892 358.628 39.6484 358.273 39.9204C357.918 40.1928 357.638 40.4777 357.433 40.7754C357.189 41.1196 356.904 41.3785 356.577 41.5522C356.251 41.7263 355.877 41.7887 355.458 41.7402C354.954 41.682 354.557 41.4797 354.266 41.1327C353.975 40.786 353.858 40.362 353.917 39.861C353.987 39.2599 354.258 38.72 354.731 38.2415C355.204 37.7629 355.963 37.2713 357.009 36.7659C357.912 36.3117 358.555 35.908 358.936 35.5543C359.318 35.2008 359.535 34.7984 359.588 34.3475L359.608 34.1722C359.674 33.6047 359.522 33.1213 359.152 32.7231C358.782 32.3249 358.261 32.0871 357.59 32.0094C356.986 31.9396 356.458 32.0098 356.009 32.22C355.559 32.4307 355.152 32.7854 354.787 33.2847C354.466 33.7046 354.149 34.0106 353.838 34.2032C353.526 34.3956 353.119 34.4627 352.615 34.4044C352.111 34.3463 351.712 34.1565 351.418 33.8346C351.124 33.5129 351.007 33.0931 351.068 32.5755C351.126 32.0745 351.356 31.5596 351.758 31.0305C352.403 30.1744 353.263 29.5417 354.341 29.133C355.417 28.7244 356.652 28.6006 358.046 28.7616C359.321 28.9091 360.416 29.2559 361.331 29.8016C362.245 30.3475 362.923 31.0266 363.364 31.839C363.805 32.6517 363.971 33.5257 363.861 34.4608Z" fill="#FF6C33"/>
<path d="M343.801 34.9341C342.961 34.8371 342.282 34.9703 341.763 35.3333C341.245 35.6965 340.866 36.3129 340.629 37.1823L346.042 37.8082C346.104 36.9862 345.943 36.3243 345.559 35.8228C345.175 35.3215 344.589 35.0253 343.801 34.9341Z" fill="#FF6C33"/>
<path d="M70.9364 176.217C70.6926 174.259 71.1138 171.907 70.9364 169.898C70.186 169.786 69.8957 169.962 69.3814 170.457C68.2781 171.519 65.784 175.893 64.5523 177.524C62.4799 180.269 60.3814 183.107 58.2235 185.78C55.2819 189.424 47.5384 196.231 47.5491 200.804C47.5512 201.705 49.7 203.53 48.2628 205.357C47.2151 206.689 45.1395 205.22 43.7926 205.117C31.9831 204.217 33.47 225.967 45.7184 226.219C50.0295 226.308 50.5563 222.759 53.7762 227.756C63.8511 243.39 73.2582 250.284 92.0187 253.662C94.5152 254.111 97.8897 253.192 99.0252 256.265C99.7501 258.227 99.7359 263.182 99.2355 265.264C99.0932 265.855 98.4633 266.424 98.3343 267.073C97.1756 272.899 109.695 275.991 112.969 269.735C114.688 266.449 112.454 265.296 112.121 262.384C111.996 261.286 111.942 254.323 112.491 253.941C128.781 251.956 142.376 243.206 150.932 229.382C152.01 227.639 154.558 221.696 155.783 220.806C157.361 219.66 158.465 221.241 159.744 221.512C163.883 222.388 168.858 219.887 170.8 216.214C174.203 209.78 171.656 199.082 162.829 200.626C161.499 200.858 159.38 202.553 158.11 201.309C156.584 199.815 158.375 197.721 158.295 196.186C158.238 195.1 157.462 192.801 156.869 191.822C154.778 188.373 146.186 179.83 142.926 176.589C142.191 175.859 137.322 171.205 136.944 171.05C136.216 170.751 136.311 171.462 136.445 171.93C136.867 173.408 138.103 174.874 138.305 176.588C138.777 180.587 136.666 179.719 136.356 181.209C136.11 182.392 138.239 182.52 137.526 184.45C135.891 184.816 135.03 183.637 133.674 183.114C132.648 182.718 128.268 181.5 127.901 181.2C126.614 180.15 129.028 178.442 127.784 177.289L116.158 167.604C115.544 167.52 115.514 167.568 115.587 168.168C115.84 170.226 119.907 176.027 114.284 175.988C111.492 175.969 103.202 171.333 100.766 169.517C99.5436 168.606 95.3642 164.253 94.5861 164.14C94.0895 164.067 93.7189 164.145 93.269 164.351C92.1406 164.867 86.7701 173.088 84.9836 174.874C82.8937 176.964 79.9699 179.044 77.2794 180.23L76.7192 183.502C75.0084 183.89 73.3176 184.31 71.7126 185.031C70.762 185.458 68.0108 187.848 67.2658 186.762C65.668 184.432 72.6089 182.044 72.8208 180.757C72.0786 179.359 71.1365 177.824 70.9364 176.217ZM315.741 179.474L314.403 179.862C310.959 186.588 306.533 192.663 302.439 198.978C301.714 200.096 300.734 200.234 300.434 201.968C300.233 203.132 300.614 206.618 300.776 207.957C303.272 228.543 314.017 246.501 335.296 251.354C337.621 251.884 343.183 251.929 344.402 253.783C345.473 255.409 345.212 262.896 344.307 264.76C342.685 268.098 336.571 264.407 338.877 270.005C341.646 276.724 354.127 276.631 358.862 271.199C363.442 265.945 357.292 267.431 356.035 264.037C355.217 261.827 354.743 254.722 356.335 252.984C357.936 251.237 363.059 251.764 365.544 251.423C381.226 249.273 394.737 235.949 399.546 221.298C402.538 212.181 404.289 201.551 404.219 191.971C403.921 191.066 402.167 191.297 401.368 191.325C396.878 191.485 389.92 192.573 385.685 191.647C383.29 191.123 382.947 186.923 381.198 185.388C380.3 184.601 377.205 183.709 376.978 183.071C376.02 180.376 379.987 182.698 379.949 180.503C378.532 177.335 378.152 166.385 374.434 165.308C373.648 165.206 373.938 165.342 373.865 165.869C373.614 167.692 374.21 169.202 374.266 170.839C374.385 174.372 374.741 185.75 373.399 188.391C373.024 189.129 372.444 189.51 371.66 189.725C368.797 190.508 357.337 190.592 354.695 189.545C352.02 188.485 351.55 185.561 350.883 182.997C349.61 178.105 349.37 172.94 348.459 167.98C347.933 167.96 347.409 167.922 346.916 168.17C345.04 169.115 343.425 183.721 342.111 186.75C341.653 187.808 340.282 189.175 339.222 189.62L315.797 192.437C313.875 188.265 315.702 183.796 315.741 179.474ZM254.281 234.13C253.945 232.627 253.795 227.895 252.628 227.136C251.911 226.671 250.24 228.68 249.725 229.252C242.615 237.16 239.019 247.909 234.286 257.166C231.548 262.521 230.41 261.116 225.498 261.024C222.302 260.964 219.036 260.951 215.841 261.026C213.929 261.071 211.631 262.184 209.865 260.877C207.958 259.465 205.445 251.878 204.181 249.298C201.181 243.173 195.164 231.557 190.632 226.78C190.113 226.234 189.206 224.907 188.312 225.594C187.54 226.187 185.362 240.819 185.24 242.836C184.643 252.714 186.217 260.558 187.175 270.048C188.364 281.837 185.506 288.953 177.133 297.192C175.546 298.755 172.229 300.83 171.026 302.221C170.709 302.588 170.468 302.784 170.635 303.349C171.055 304.768 186.399 306.467 175.034 311.969L175.219 313.342C179.603 315.531 183.772 318.081 187.994 320.549C189.893 321.659 191.429 321.932 193.35 323.645C197.117 327.003 199.181 332.059 199.514 337.044C199.681 339.547 200.212 344.029 197.294 344.824C192.421 346.15 179.765 348.164 175.152 347.112C171.875 346.365 162.756 342.359 159.76 340.597C155.173 337.901 156.07 333.647 154.044 329.247C150.951 328.274 152.827 333.552 151.142 334.142C148.915 334.92 145.053 330.983 142.533 331.509C143.322 334.177 148.053 335.506 144.563 338.73L140.993 338.402C141.471 340.155 143.804 340.422 144.496 342.411C145.363 344.073 141.057 344.924 142.144 346.057C143.025 346.974 152.101 345.527 154.48 346.233C155.113 346.421 156.825 347.718 157.51 348.198C168.136 355.631 175.918 361.08 188.62 365.116C189.668 365.449 192.702 365.329 193.275 366.993C193.561 367.824 193.059 373.234 192.951 374.586C192.434 381.103 190.269 393.481 191.423 399.474C191.648 400.643 193.546 401.46 192.917 403.261C192.71 403.856 188.882 404.753 187.985 405.26C178.589 410.571 179.336 422.599 183.566 431.035C184.757 433.411 190.47 440.457 190.546 442.056C190.683 444.931 185.73 443.895 183.942 444.129C182.585 444.308 181.312 445.192 179.913 445.289L178.985 446.117C178.376 446.836 179.571 448.996 180.431 449.426C181.423 449.921 183.464 449.119 184.345 449.426C188.564 449.429 192.548 448.589 196.658 447.973C197.902 447.786 199.184 448.065 200.427 447.893C202.377 447.624 203.084 446.172 205.055 445.987C212.454 445.294 221.683 446.138 229.345 446.027C234.08 445.959 238.743 444.338 242.881 447.847L258.791 449.286C260.878 449.377 261.689 449.714 262.622 447.924C262.572 447.175 262.894 445.909 262.249 445.427C260.255 443.939 252.516 445.282 251.9 443.058C251.345 441.054 256.818 435.013 257.905 432.7C261.475 425.108 263.233 409.213 253.343 405.653C251.87 405.123 248.255 405.059 247.682 403.238C246.828 400.524 249.469 400.649 249.85 399.41C250.108 398.568 249.975 396.288 249.938 395.254C249.762 390.359 249.192 385.236 248.765 380.336C248.537 377.718 246.884 368.978 247.47 367.187C247.826 366.1 248.487 365.798 249.449 365.311C253.347 363.339 258.653 362.081 262.83 360.241C268.158 357.895 274.212 354.383 278.971 351.025C281.713 349.09 285.884 344.476 288.989 344.144C290.588 343.973 297.786 344.875 298.418 343.564C298.832 342.703 296.778 343.032 296.3 342.237C294.986 340.051 297.465 339.083 298.705 338.128C299.024 337.882 299.411 338.135 299.189 337.253C297.145 337.381 295.415 337.542 294.964 335.135L298.419 330.36C298.106 330.064 291.605 333.63 290.199 332.6C289.073 332.231 289.915 325.175 288.014 328.619C285.789 332.649 287.154 335.966 283.208 339.157C279.612 342.064 267.783 346.442 263.196 346.819C259.452 347.126 247.951 346.264 244.437 345.198C241.224 344.223 241.618 337.26 241.888 334.428C243.208 320.611 256.518 321.458 265.126 314.656C265.732 314.178 266.66 313.333 266.86 312.558C266.613 311.515 262.395 311.764 263.479 308.038C264.389 304.911 270.739 305.154 270.729 303.363C270.725 302.771 263.558 296.391 262.426 295.131C260.591 293.087 258.306 290.099 256.849 288.121C251.937 281.451 255.396 268.638 255.712 260.483C256.045 251.883 256.047 242.027 254.281 234.13ZM339.22 259.503C339.33 258.981 339.184 258.872 338.829 258.561C338.264 258.065 331.634 256.686 330.067 256.173C325.111 254.55 321.197 252.234 316.931 249.328C316.1 248.762 313.073 245.695 312.28 246.487C311.325 249.797 313.283 257.448 308.63 257.987C297.312 257.73 286.348 257.88 275.327 255.106C273.301 254.596 262.029 250.524 261.324 250.728C260.863 250.862 260.777 251.251 260.701 251.662C260.24 254.172 260.847 258.44 260.716 261.249C260.438 267.186 258.623 276.315 260.043 281.801C261.193 286.247 267.772 293.74 271.504 296.44C271.863 296.7 273.402 297.655 273.695 297.728C276.322 298.376 285.104 292.65 288.292 292.133C290.647 291.003 302.057 284.95 302.85 283.246C303.381 282.106 302.601 281.204 302.668 280.045C302.818 277.461 305.542 275.764 307.536 274.515C312.852 271.185 320.753 266.845 326.431 264.208C330.564 262.289 335.067 261.35 339.22 259.503ZM421.078 275.082C422.021 273.951 424.252 271.013 424.313 269.654L422.389 258.146C421.932 257.829 416.985 257.904 416.017 257.982C409.262 258.523 402.502 259.64 395.597 259.143C394.496 259.064 391.702 258.963 391.57 257.788C391.163 254.901 391.671 250.515 391.184 247.832C391.122 247.495 390.911 246.934 390.6 246.871C390.149 246.78 384.027 251.11 382.832 251.773C379.85 253.427 375.219 255.735 372.011 256.708C368.841 257.67 365.357 257.643 362.319 259.133C361.735 259.77 363.424 260.358 363.791 260.527C373.392 264.933 385.638 267.423 394.597 273.158C398.295 275.526 397.069 275.667 397.738 279.225C397.952 280.366 401.128 282.51 402.225 283.185C402.892 283.595 406.859 285.692 407.339 285.787C411.024 286.52 417.337 278.756 419.651 276.146C420.076 275.666 420.793 275.424 421.078 275.082ZM25.9084 255.3C25.4884 257.439 23.0153 257.326 21.3908 256.527C20.4386 256.059 20.0654 254.939 18.9754 254.916C18.7237 258.716 16.2826 259.028 13.2011 257.597C13.8244 261.212 14.4132 263.448 9.73618 262.959C8.75948 263.893 12.3116 265.741 12.9448 266.082C15.0136 267.195 19.6436 268.264 20.7272 269.828C21.7849 271.355 22.8014 274.269 23.8239 275.938C26.4708 280.259 33.8347 291.687 37.6444 294.356C41.6988 297.197 46.949 296.572 51.2427 294.685C51.827 292.389 50.2022 290.513 50.1383 288.243C49.7544 287.914 44.325 289.647 42.4586 288.8C42.2847 288.721 39.9251 286.673 39.5566 286.326C35.6879 282.691 26.0008 270.365 25.2309 265.347C24.6567 261.604 25.4947 258.932 26.676 255.494L25.9084 255.3ZM438.144 259.895C437.587 259.271 435.303 263.832 433.304 264.108C429.938 264.571 431.368 260.503 428.525 261.042C428.454 265.114 430.901 269.317 429.061 273.257C427.806 275.943 419.088 285.452 416.595 287.662C414.791 289.262 410.521 292.172 408.117 291.909C404.478 291.511 397.209 285.348 395.234 285.532C394.13 285.635 392.073 291.058 392.529 292.05C393.436 294.024 403.665 299.269 406.106 299.621C414.79 300.874 419.051 294.535 424.102 289.004C426.737 286.118 433.277 277.411 436.23 276.177C439.379 274.862 443.447 274.845 445.841 271.951L442.552 270.638C440.064 266.764 446.44 265.521 446.997 262.193C444.737 261.751 443.817 264.905 442.017 265.465C437.256 266.949 438.109 263.132 438.144 259.895ZM118.333 266.455C117.284 271.038 115.808 274.822 111.11 276.693C105.749 278.828 98.4422 276.682 95.4106 271.733C94.4536 270.171 94.0689 265.998 91.3342 267.357C89.4471 268.295 92.0483 273.989 92.9341 275.346C101.109 287.872 119.404 282.921 121.969 268.712C122.455 266.019 120.485 266.269 118.333 266.455ZM126.237 267.603C125.481 267.85 124.088 273.946 123.352 275.47C116.279 290.12 94.9375 289.46 88.6249 274.655C87.3704 271.713 88.436 268.015 84.3842 268.87C80.4478 269.7 75.0972 271.937 71.1216 273.29C65.8143 275.095 60.5971 277.215 55.2631 278.958C53.0519 280.287 54.7581 286.336 55.2692 288.693C55.6249 290.334 58.0332 299.447 59.0037 299.931C60.4243 300.156 62.2118 299.559 63.7033 299.227C66.2123 298.667 75.0739 295.74 76.8402 296.339C78.094 296.765 77.8947 299.234 77.8599 300.292C77.249 318.874 73.5687 338.4 72.4809 356.978C72.3621 359.008 72.1441 364.004 72.4849 365.773C72.7251 367.018 73.9359 367.268 75.0126 367.47C78.7235 368.169 83.136 368.082 86.9063 368.275C101.793 369.034 120.562 368.302 135.405 366.352C136.521 366.205 140.397 365.639 140.803 364.828C141.116 362.166 141.182 351.724 139.451 350.081C138.737 349.403 135.555 348.682 135.022 347.593C134.473 346.471 135.088 344.608 134.738 343.28C134.386 341.943 132.566 341.186 132.494 339.347C132.447 338.138 133.188 337.431 133.308 336.302C133.472 334.762 132.619 332.998 132.979 331.782C133.309 330.668 135.697 329.906 136.17 328.817C139.112 322.045 136.035 311.724 135.223 304.502C135.016 302.651 133.804 295.875 136.856 296.326C140.467 297.659 143.74 299.864 147.275 301.32C148.19 301.697 149.779 302.589 150.601 302.225C152.525 301.375 157.08 289.022 157.601 286.567C158.523 282.224 157.447 282.343 153.948 280.511C145.325 275.994 136.22 272.215 127.616 267.635C127.169 267.492 126.688 267.456 126.237 267.603ZM386.914 377.425C386.897 376.005 387.11 374.493 386.931 373.079C386.843 372.384 386.305 371.835 386.208 371.117C382.781 345.79 376.648 320.179 372.372 294.888C371.347 288.825 370.477 274.369 367.921 269.445C367.672 268.965 367.007 267.78 366.367 267.936C365.777 268.08 363.218 273.942 362.129 275.215C355.37 283.119 342.211 283.781 336.134 274.647L332.877 269.088L332.001 270.133C326.613 301.687 321.206 333.245 316.851 364.969C316.477 367.69 314.581 374.74 315.641 376.989C315.806 377.339 315.981 377.66 316.391 377.774C332.506 380.726 350.307 381.863 366.738 380.902C370.131 380.704 375.733 380.245 379.029 379.727C381.613 379.322 384.342 377.975 386.914 377.425ZM316.972 296.959C318.472 297.837 322.888 294.148 323.262 292.458C323.542 285.962 326.268 278.978 326.868 272.679C326.95 271.81 327.153 270.806 326.317 270.234C325.203 270.014 308.497 279.774 308.1 281.234C307.811 282.298 310.29 286.536 310.978 287.802C311.999 289.68 313.372 292.052 314.578 293.795C314.896 294.253 316.801 296.859 316.972 296.959ZM373.482 270.232L377.027 291.405C377.251 292.009 377.704 292.223 378.214 292.522C378.79 292.86 383.679 294.841 384.253 294.964C385.162 295.16 385.588 294.762 386.125 294.109C387.225 292.771 391.378 282.501 391.786 280.597C392.436 277.564 390.162 276.943 387.72 275.787C384.668 274.342 378.01 271.209 375.023 270.421C374.505 270.284 374.025 270.148 373.482 270.232ZM272.286 310.789C272.803 310.982 273.308 311.195 273.884 311.132C275.69 310.932 280.763 308.877 282.839 308.153C292.268 304.867 301.162 300.769 309.412 295.148C310.168 294.519 310.076 293.671 309.798 292.811C309.552 292.047 306.911 287.885 306.307 287.828C305.177 287.722 299.458 291.674 297.907 292.507C295.084 294.023 292.14 295.512 289.266 296.93C287.506 297.799 278.834 301.097 278.479 302.283C277.817 304.498 279.41 305.625 276.448 307.539C275.484 308.162 271.045 309.013 272.286 310.789ZM161.28 290.199C160.894 290.307 160.635 290.595 160.447 290.932C159.996 291.735 158.232 297.58 158.493 298.172C159.574 299.577 163.268 301.462 164.95 301.187C165.632 301.076 171.37 296.736 171.604 296.278C172.779 293.978 167.446 292.863 165.749 292.131C164.478 291.583 162.468 289.868 161.28 290.199ZM255.872 455.218C245.083 455.218 234.428 454.796 223.539 454.804C216.472 454.809 206.863 453.6 200.063 454.425C195.993 454.918 192.697 454.83 188.544 454.835C185.349 454.839 181.643 454.568 178.526 454.813C176.401 454.981 172.583 453.639 172.606 452.3C172.124 449.902 171.461 445.288 176.977 440.647C178.183 439.632 179.922 439.704 180.994 438.505C180.588 436.274 178.998 434.613 178.147 432.596C172.873 420.089 173.249 407.239 185.962 399.802C186.036 393.437 185.995 387.095 186.442 380.748C186.503 379.886 187.112 379.054 187.184 378.039C187.364 375.498 187.066 372.766 187.159 370.205C185.554 369.687 183.496 369.241 181.967 368.671C171.661 364.832 163.286 357.806 154.076 351.997C151.435 350.938 148.374 351.42 145.631 351.823C145.097 356.982 148.428 364.434 146.012 369.245C144.61 372.037 143.506 370.498 143.671 374.99C143.958 382.747 145.622 390.908 146.014 398.714C145.647 403.032 140.613 401.164 140.221 403.311L140.231 429.343C140.283 429.883 140.543 430.22 141.009 430.484C142.2 431.157 146.468 431.778 148.288 432.432C152.336 433.888 157.017 436.511 159.232 440.309C159.937 441.518 161.299 446.478 162.831 449.349C162.831 449.349 164.293 453.918 161.569 454.039C158.81 454.161 155.927 455.055 153.132 455.218C142.216 455.855 130.287 455.082 119.227 455.187C117.234 455.205 114.235 455.97 112.274 455.93C105.433 455.789 98.926 455.068 91.9301 455.218C82.7955 455.414 73.7307 455.542 64.5696 455.602C62.2186 455.617 59.8593 455.644 57.4947 455.68C55.13 455.716 56.8561 447.949 56.8561 447.949C57.4356 445.934 57.8446 442.356 59.4248 440.977C59.6802 440.755 60.8042 439.041 61.1155 438.746C64.9696 435.099 66.0601 434.452 71.1213 432.6C72.8095 431.983 76.8476 431.492 77.3264 429.939L76.5531 404.253C76.391 403.86 76.3023 403.136 75.9564 402.913C74.8111 402.173 69.5721 403.167 69.0221 400.238C68.6645 398.333 68.9213 393.61 68.9959 391.424C69.1022 388.306 70.6386 373.56 69.736 371.965C69.3527 371.287 68.546 370.865 68.1591 370.076C67.0702 367.857 67.6865 359.159 67.8609 356.211C68.559 344.413 70.0932 332.002 71.3246 320.213C71.9566 314.161 73.1691 308.096 73.2476 302.017C69.6924 301.911 66.3795 303.512 62.9427 304.214C61.4847 304.512 58.1522 305.27 56.8703 305.105C53.9832 304.733 54.5236 300.932 53.3689 300.535C52.4599 300.223 46.9692 301.958 44.9744 302.035C36.5812 302.361 31.3903 296.343 26.9047 290.106C24.654 286.976 18.3307 274.866 16.2449 273.522C13.7614 271.921 9.76259 270.733 7.05606 268.877C4.27211 266.968 2.07855 264.3 0.107283 261.629C-0.534613 258.229 1.90809 257.631 2.03975 256.249C2.14162 255.18 1.39987 254.317 1.8187 252.59C2.17225 251.132 3.22448 250.828 3.66774 249.836C4.17597 248.699 3.91383 247.541 4.73014 246.297C5.99415 244.372 7.06459 245.236 8.75268 244.938C11.1335 244.518 11.3459 241.898 13.3655 241.1C17.9599 239.286 20.4574 246.536 23.4771 248.746C24.5828 249.053 24.9335 247.587 25.7859 247.334C28.7383 246.457 31.6061 247.999 32.4214 250.917C33.8224 255.932 30.9222 259.353 30.8895 263.936C30.8773 265.643 34.7779 271.683 35.9822 273.416C36.7604 274.535 37.7457 275.887 38.6143 276.924C39.5613 278.055 43.1204 281.898 44.1631 282.508C45.2211 283.126 47.4733 282.661 48.0386 281.727C48.4844 280.99 48.0823 279.749 48.2582 278.881C48.7296 276.556 49.5423 275.645 51.5997 274.547C65.3351 270.068 78.7397 264.484 92.9968 261.736L93.6039 261.191L93.6488 259.895C78.7838 258.674 66.3389 251.098 56.4965 240.368C54.9701 238.704 51.355 233.261 49.9182 232.36C48.6153 231.544 45.9709 232.087 44.2768 231.846C37.9694 230.948 31.7714 224.586 30.9379 218.31C29.8448 210.079 32.014 205.162 38.1383 199.883C38.318 196.128 37.1059 192.126 37.8313 188.467C37.6194 184.152 38.3184 179.899 39.2428 175.704C39.4916 174.574 40.4442 172.871 40.4397 171.922C40.4295 169.775 35.3506 171.979 36.3821 167.112C37.3013 162.776 48.1198 156.915 48.5496 154.716C48.9136 152.854 42.1845 151.492 43.8105 147.694C44.3619 146.406 49.4592 144.623 50.7283 144.623H57.4643C58.269 143.817 54.1914 130.887 59.4889 131.668C63.2254 132.22 64.2448 139.187 65.7342 138.876C66.7678 137.1 66.3247 134.431 66.8894 132.363C68.8233 125.279 73.6457 126.278 74.3736 133.291C74.41 133.693 75.0479 133.572 75.3094 133.468C76.2081 133.108 78.5118 129.07 79.4159 127.975C81.8057 125.081 87.0234 119.513 87.8763 126.624C88.1773 126.636 88.4784 126.66 88.7757 126.566C90.0651 126.155 93.9206 119.765 96.9504 119.356C101.722 118.711 98.6919 125.488 99.0373 125.856C101.898 125.494 105.209 119.49 108.105 121.239C110.823 122.882 107.364 128.38 107.89 128.919C111.072 128.949 118.062 122.943 120.818 125.056C121.168 125.472 121.502 126.07 121.581 126.601C121.713 127.485 120.756 129.007 121.947 128.936C123.039 128.871 126.035 126.6 127.528 126.058C128.836 125.583 131.969 124.564 132.93 125.645C134.944 127.911 131.948 130.653 132.138 133.132C136.572 133.099 141.721 129.885 145.958 132.596C150.373 135.421 143.798 138.85 144.839 140.023C147.319 140.939 153.924 143.286 155.251 145.559C156.744 148.115 153.576 148.204 153.71 150.348C153.996 150.758 158.986 152.585 159.834 153.257C160.765 153.997 166.043 160.788 166.305 161.76C167.013 164.394 165.234 163.999 164.649 164.922C163.868 166.153 166.548 173.294 166.977 175.255C168.129 180.52 168.072 185.784 167.951 191.168C167.917 192.708 166.745 194.437 168.497 195.572C169.152 195.996 169.941 195.924 170.512 196.248C172.671 197.473 174.094 198.962 175.144 201.213C180.071 211.772 175.841 225.775 163.118 226.953C159.869 227.254 157.918 225.732 156.31 229.371C151.06 241.25 138.489 252.073 126.066 256.341C124.512 256.875 117.76 258.309 117.314 259.122C116.568 260.483 117.276 260.821 118.508 260.997C132.746 263.026 143.393 270.363 156.133 276.422C159.222 277.891 163.436 278.005 163.34 282.305C163.295 284.36 162.128 284.593 164.281 286.315C165.822 287.547 173.702 290.469 175.427 290.145C176.192 290.001 177.441 288.66 177.943 288.041C182.11 282.892 183.091 277.494 182.207 270.782C182.003 269.23 180.779 266.249 180.624 263.928C179.775 251.21 181.211 238.106 182.547 225.639C182.866 222.659 183.994 217.246 188.109 217.775C189.786 217.991 194.582 223.208 195.745 224.757C198.506 228.436 201.883 233.738 204.133 237.779C205.983 241.101 209.041 246.766 210.665 250.506C211.291 251.945 211.515 255.1 213.242 255.601C215.355 256.215 222.34 255.608 225.111 255.664C226.4 255.69 227.366 256.506 228.585 255.706C229.833 254.888 234.687 243.853 235.92 241.558C239.513 234.87 244.569 226.368 249.724 220.826C252.16 218.207 254.492 215.959 257.132 219.977C258.813 227.714 259.786 235.569 260.701 243.428C261.372 244.105 264.163 240.659 264.717 239.955C280.048 220.483 279.235 196.345 285.74 173.557C292.539 149.739 300.187 134.536 322.663 122.211C331.489 117.371 339.591 114.986 349.804 115.522C352.79 115.678 356.746 117.972 357.278 113.759C357.87 109.079 354.441 110.38 351.439 109.682C345.605 108.326 341.977 104.541 341.571 98.4218C341.402 95.8636 344.711 90.057 346.539 88.1393C355.096 79.1659 369.835 86.099 367.991 98.7591C367.659 101.039 366.128 102.92 365.784 105.176C367.536 105.107 368.954 103.995 370.692 103.747C377.085 102.834 379.358 106.863 378.882 112.659C378.685 115.068 377.577 116.391 377.116 118.571C384.583 123.512 392.219 127.985 398.312 134.66C415.792 153.807 419.613 178.21 422.746 203.027C424.4 216.128 424.891 229.546 428.716 242.276C429.38 244.487 431.42 248.306 431.586 250.173C431.823 252.838 428.806 256.419 433.283 257.193C434.372 256.876 436.536 249.155 440.645 249.138C445.07 249.12 443.923 252.835 445.058 253.59C446.194 254.346 448.568 252.841 449.649 254.767C450.146 255.652 449.99 256.626 450.371 257.495C450.924 258.755 452.681 259.471 453.068 261.321C453.44 263.098 452.604 264.349 452.778 265.792C453.064 268.157 454.904 268.598 453.441 272.239C451.135 277.978 442.95 278.813 438.069 280.688C436.403 281.328 429.876 290.351 427.95 292.449C423.814 296.956 415.853 305.18 409.462 305.109C402.628 305.034 396.081 300.296 390.197 297.408L389.707 297.479C386.797 303.335 382.898 298.161 378.485 298.19C380.575 308.884 381.904 319.742 383.985 330.438C386.802 344.917 391.731 360.696 392.721 375.36C392.891 377.88 393.473 382.342 390.893 383.489C387.21 385.128 380.878 385.295 376.828 385.963L375.867 386.921L376.071 432.519C376.59 433.603 380.983 434.132 382.422 434.626C388.176 436.601 391.022 439.055 393.833 444.335C394.482 445.554 395.757 448.559 394.718 451.885C393.679 455.212 383.994 455.106 377.537 455.218C372.078 455.313 364.506 454.52 359.404 455.172C358.635 455.27 359.021 456.014 358.303 456C348.503 455.809 338.527 455.985 328.641 455.582C318.533 455.17 302.892 454.063 301.315 454.082C296.436 454.143 296.255 451.146 296.255 451.146C296.616 448.119 298.212 443.69 299.264 442.062C301.059 439.284 303.785 437.122 306.8 435.774C309.759 434.451 314.29 434.051 316.795 432.725C317.249 432.485 317.36 432.401 317.5 431.878C317.945 430.214 318.256 426.626 318.435 424.755C319.229 416.436 319.646 407.447 319.993 399.115C320.162 395.036 320.207 390.934 320.353 386.853C319.674 383.333 309.086 386.159 309.301 380.616C310.243 355.149 317.987 329.653 320.7 304.462C320.801 303.521 320.748 302.575 320.745 301.635C319.326 301.223 318.026 302.915 316.791 302.725C315.09 302.465 313.269 298.717 311.883 299.098C308.284 301.65 304.566 303.968 300.605 305.915C295.466 308.441 289.177 310.906 283.786 312.925C277.117 315.423 269.995 316.24 264.723 321.532C261.497 324.769 259.46 330.253 253.941 331.098C251.68 331.444 250.647 330.571 248.632 330.333C247.409 332.092 246.625 334.141 246.466 336.298C246.18 340.166 246.824 340.511 250.547 341.033C253.854 341.498 259.592 342.085 262.811 341.841C266.974 341.525 279.829 336.827 281.575 332.936C282.403 331.09 282.417 326.241 284.955 326.141C283.854 323.27 288.314 320.831 290.816 322.017C293.466 323.272 292.213 327.479 295.742 326.356C298.296 325.544 301.605 322.448 304.966 324.038C306.682 324.85 305.734 327.656 306.308 328.83C306.568 329.364 307.606 329.647 308.052 330.158C308.583 330.768 309.699 337.201 309.567 338.176C309.374 339.607 308.207 340.829 307.737 342.116C307.212 343.553 307.199 345.145 306.405 346.535C303.923 350.879 296.19 349.523 292.077 349.895C286.897 350.364 282.719 355.029 278.533 357.866C274.601 360.531 270.234 363.266 265.902 365.213C264.098 366.025 253.358 369.58 253.063 370.439C253.446 380.34 255.138 390.208 255.39 400.169C257.297 402.49 259.899 403.587 261.846 406.001C263.474 408.018 264.445 410.395 265.527 412.717C266.003 412.767 266.412 412.688 266.844 412.487C269.201 411.391 274.429 405.69 276.257 403.471C282.051 396.437 284.184 387.765 289.962 381.108C292.223 378.503 297.619 373.597 300.267 378.115C299.985 381.062 300.852 384.407 300.729 387.217C300.624 389.602 299.941 394.7 299.486 397.094C299.29 398.125 297.192 403.427 297.654 403.884C299.196 404.077 302.297 401.923 302.961 404.154C303.832 407.079 300.767 414.449 299.473 417.378C299.045 418.347 298.25 419.313 297.702 420.233C297.545 421.222 300.003 421.596 299.508 423.904C299.427 424.285 297.081 428.155 296.667 428.756C293.234 433.726 287.235 438.829 282.439 442.556C281.953 442.934 271.297 451.831 269.734 452.809C269.734 452.809 267.144 455.218 255.872 455.218ZM140.435 303.171C139.077 303.512 140.434 307.401 140.559 308.384C141.132 312.87 141.364 318.122 142.194 322.459C142.871 326 144.397 327.291 148.047 327.639C151.16 321.869 155.99 322.794 158.464 328.484C159.465 330.786 159.562 334.311 161.38 335.922C163.289 337.614 172.577 341.874 175.161 342.508C179.364 343.541 189.351 342.191 193.432 340.598C195.578 339.76 195.446 338.889 195.221 336.715C194.24 327.233 185.463 324.882 178.454 320.849C176.906 319.958 168.82 315.352 168.295 314.493C166.622 311.754 170.703 310.247 169.099 308.709C168.344 307.985 165.541 307.877 164.364 307.295C163.632 306.934 163.209 306.176 162.431 305.772C161.442 305.259 157.666 303.203 156.931 303.163C154.871 303.049 155.285 307.75 151.968 307.8C149.298 307.841 141.49 302.906 140.435 303.171ZM121.362 446.779L121.761 417.082L120.914 404.524C120.175 402.366 113.283 405.572 111.578 402.704C110.967 401.678 110.748 399.237 110.586 397.947C109.963 392.996 110.172 387.129 109.337 382.339C109.039 380.63 107.895 379.312 106.313 380.684C105.386 384.498 105.844 388.657 105.575 392.585C105.424 394.788 105.178 400.961 104.517 402.638C103.184 406.019 95.888 402.997 95.2504 404.907L95.6474 446.127C95.9928 447.286 98.4958 447.473 99.5986 447.557C102.71 447.794 106.102 447.343 109.251 447.559L121.362 446.779ZM283.797 401.586C284.344 402.217 286.596 398.38 288.801 399.477C290.634 400.39 288.947 405.39 288.829 407.089C288.994 408.262 291.862 406.884 292.076 406.573C292.403 406.098 292.765 402.842 293.061 401.808C294.658 396.233 296.44 390.462 295.746 384.528C295.56 382.939 295 382.853 293.785 383.764C291.682 385.342 284.94 397.343 284.017 400.085C283.846 400.593 283.698 401.043 283.797 401.586ZM328.739 447.836C329.223 447.351 329.878 440.911 329.981 439.689C331.095 426.433 331.76 413.135 332.683 399.869C332.977 395.643 334.061 391.261 333.641 387.033C333.447 386.706 333.166 386.454 332.794 386.346C332.519 386.267 327.47 385.815 327.092 385.85C324.572 386.083 325.558 390.319 325.36 392.201C324.085 404.372 323.359 416.75 322.29 428.974C322.085 431.314 323.181 435.903 320.858 437.123C318.791 438.208 313.893 438.454 311.207 439.393C308.47 440.349 304.428 442.812 302.866 445.263C301.639 447.188 302.081 448.436 304.381 448.699C309.421 449.275 316.198 448.555 321.308 448.293C322.862 448.214 327.872 448.702 328.739 447.836ZM365.974 448.309H389.069C390.007 448.309 389.584 446.194 389.211 445.485C387.615 442.453 382.807 440.206 379.645 439.304C377.652 438.735 374.195 438.509 372.617 437.871C372.124 437.672 371.793 437.475 371.632 436.936L371.188 388.358C370.753 385.044 366.028 387.58 363.717 387.088L363.087 387.993L364.82 447.543C364.928 447.721 365.783 448.269 365.974 448.309ZM354.923 387.151C349.785 387.402 344.596 387.519 339.414 387.418L338.505 388.045C338.331 392.133 337.669 396.186 337.302 400.252C336.148 413.009 335.322 425.752 334.6 438.54C334.526 439.836 333.616 446.27 333.998 446.803C337.567 447.594 341.466 447.582 345.205 447.559C346.204 447.553 347.151 447.15 348.25 447.142C352.006 447.113 355.661 447.944 359.366 447.096L359.956 446.534C360.065 427.111 359.361 407.76 358.458 388.386C358.112 386.507 356.241 387.086 354.923 387.151ZM155.189 447.885C155.846 440.68 146.834 437.696 141.08 436.54C139.695 436.262 135.513 436.326 135.021 435.292L134.383 403.375L133.819 402.79C132.231 402.955 126.883 402.611 126.44 404.153C126.266 404.758 126.145 407.15 126.124 407.971C126.052 410.818 126.73 414.296 126.765 417.082C126.881 426.225 125.541 436.56 126.346 445.455C126.608 448.344 128.081 448.132 130.775 448.325C136.926 448.764 146.582 448.745 152.745 448.325C153.583 448.268 154.381 448.064 155.189 447.885ZM90.0909 447.835L90.5839 445.452C89.5737 433.283 91.3977 419.111 90.133 407.19C90.0443 406.354 89.7793 404.431 89.0333 404.071C88.442 403.786 83.9043 403.403 83.0868 403.53C81.9 403.713 81.4487 404.011 81.3072 405.205C80.7757 409.691 81.7585 415.187 81.3132 419.794L82.5966 434.796C80.8795 436.581 76.9759 436.377 74.387 436.998C71.3232 437.734 68.1293 438.902 65.9155 441.208C64.3061 442.884 61.0632 448.196 64.9525 448.71C70.0968 449.389 78.1194 448.578 83.4302 448.293C84.893 448.215 89.2328 448.689 90.0909 447.835ZM282.253 407.717C281.718 407.16 276.526 410.421 275.745 411.004C274.7 411.783 266.646 418.703 266.301 419.224C265.457 420.495 265.558 424.929 265.146 426.883C264.732 428.845 263.625 431.486 262.81 433.367C262.342 434.448 259.315 439.127 259.939 439.872C263.529 439.479 267.291 443.994 270.415 443.23C273.001 442.597 278.437 439.406 280.682 437.745C282.06 436.725 290.835 429.059 290.705 428.247C290.244 426.874 287.172 427.437 286.903 426.249C286.606 424.939 290.546 422.803 290.336 421.121C288.584 420.806 286.363 422.562 285.701 420.14C285.598 419.021 289.378 415.385 289.185 414.426C288.872 412.873 282.817 415.008 281.462 414.059C280.173 411.921 282.712 409.981 282.253 407.717Z" fill="#FF6C33"/>
<path d="M367.989 221.654C369.897 221.282 370.74 222.58 370.322 224.387C370.077 225.446 366.38 230.247 365.412 230.995C357.827 236.857 346.022 236.15 339.21 229.461C337.814 228.09 334.572 224.276 335.927 222.339C339.16 221.165 341.983 224.058 345.303 224.93C352.232 226.751 359.413 225.954 365.875 223.03C366.62 222.692 367.132 221.822 367.989 221.654Z" fill="#FF6C33"/>
<path d="M322.158 205.619C322.115 205.479 321.417 205.618 321.497 204.971C321.572 204.36 322.111 203.851 322.202 203.322C322.645 200.757 322.548 197.224 326.119 196.872C331.829 196.309 331.699 210.198 327.4 211.175C323.569 212.045 322.949 208.249 322.158 205.619Z" fill="#FF6C33"/>
<path d="M377.223 197.545C383.896 196.08 383.553 212.81 376.831 210.794C373.279 209.73 373.026 198.467 377.223 197.545Z" fill="#FF6C33"/>
<path d="M351.044 207.487C351.999 207.221 352.682 207.645 352.925 208.57C353.164 209.479 352.353 209.952 352.299 210.716C352.174 212.502 355.315 213.161 355.717 214.596C356.661 217.962 347.979 218.045 348.108 213.021C348.14 211.747 349.738 207.85 351.044 207.487Z" fill="#FF6C33"/>
<path d="M223.44 305.78C225.893 307.724 229.736 308.475 232.572 306.777C233.715 306.094 233.922 304.598 235.792 305.148C239.25 307.936 234.1 313.488 231.57 315.354C223.495 321.312 208.667 319.018 204.615 309.374C204.062 308.059 202.661 305.02 205.102 304.69C207.018 304.431 208.038 306.354 209.418 306.893C211.567 307.734 215.341 307.658 216.846 305.68C218.231 303.859 213.961 302.404 212.96 301.072C207.282 293.516 225.484 291.273 228.262 297.334C228.455 297.755 228.695 298.701 228.687 299.155C228.626 302.481 222.219 303.668 223.44 305.78Z" fill="#FF6C33"/>
<path d="M190.121 231.994C191.228 231.791 193.611 235.645 194.177 236.657C197.414 242.452 201.819 251.735 204.4 257.889C204.858 258.98 205.172 260.155 205.649 261.244L191.598 272.906C189.335 272.836 188.909 265.774 188.724 263.911C187.799 254.628 187.893 244.874 188.727 235.582C188.807 234.69 189.112 232.178 190.121 231.994Z" fill="#FF6C33"/>
<path d="M249.793 233.525C250.478 233.294 251.56 233.332 251.772 234.119C252.328 237.736 252.852 241.479 253.017 245.134C253.302 251.419 253.106 259.159 252.613 265.443C252.515 266.695 252.015 271.593 251.309 272.185L250.477 272.551C248.626 272.707 244.148 266.886 242.414 265.64C239.16 263.3 235.191 264.197 236.815 258.533C238.131 253.945 243.882 243.608 246.392 238.956C246.852 238.103 249.299 233.692 249.793 233.525Z" fill="#FF6C33"/>
<path d="M236.727 286.394C241.953 285.213 242.817 296.684 238.938 297.418C233.796 298.39 232.437 287.364 236.727 286.394Z" fill="#FF6C33"/>
<path d="M201.536 287.574C201.611 287.479 203.298 286.285 203.459 286.216C207.192 284.621 209.071 293.61 205.667 296.476C201.183 300.25 199.324 290.346 201.536 287.574Z" fill="#FF6C33"/>
<path d="M240.207 273.353C242.232 272.999 248.084 277.145 246.679 279.069C246.282 279.613 244.31 279.536 243.65 279.342C243.396 279.267 239.318 276.755 239.141 276.557C238.195 275.499 238.643 273.625 240.207 273.353Z" fill="#FF6C33"/>
<path d="M199.794 273.402C202.165 272.839 203.628 274.059 202.219 276.198C201.705 276.978 196.918 279.496 195.927 279.352C191.643 278.727 197.862 273.861 199.794 273.402Z" fill="#FF6C33"/>
<path d="M118.558 223.198C123.83 223.18 119.243 228.39 117.306 230.01C110.376 235.81 99.8422 236.318 92.0947 231.758C90.6539 230.91 85.5517 226.65 87.6455 225.009C89.1761 223.81 94.4858 227.241 96.6226 227.636C98.2545 227.937 102.108 228.145 103.843 228.104C108.679 227.988 114.658 226.083 118.558 223.198Z" fill="#FF6C33"/>
<path d="M73.9018 199.467C81.0122 197.379 81.1278 212.278 76.1082 213.158C69.5997 214.3 69.5444 200.746 73.9018 199.467Z" fill="#FF6C33"/>
<path d="M130.111 197.92C136.354 196.634 135.771 213.101 129.931 210.588C126.035 208.912 125.99 198.769 130.111 197.92Z" fill="#FF6C33"/>
<path d="M100.848 207.123C104.575 206.002 103.143 210.066 103.851 211.637C104.512 213.106 107.484 213.098 107.108 216.009C106.574 220.142 97.6161 219.335 97.8572 212.595C97.9161 210.947 99.1484 207.634 100.848 207.123Z" fill="#FF6C33"/>
</g>
<defs>
<clipPath id="clip0_2001_30">
<rect width="454" height="456" fill="white"/>
</clipPath>
</defs>
</svg>
